<svg id="carlota-sounds-logo" xmlns="http://www.w3.org/2000/svg" viewBox="0 0 164.52 24.06">
	<defs>
		<style>
			.cls-1{isolation:isolate;}.cls-2{fill:#1d1d1b;}
		</style>
	</defs>
	<g id="Carlota_Sounds" data-name="Carlota Sounds" class="cls-1">
		<g class="cls-1">
			<path class="cls-2" d="M6.85,32.79c-.32-.13-.65-.26-1-.41a3.18,3.18,0,0,1-.93-.66,3.8,3.8,0,0,1-.75-1.2,9,9,0,0,1-.43-1.82,14.8,14.8,0,0,1-.08-2.08,15.35,15.35,0,0,1,.24-2.9,14,14,0,0,1,.75-2.51,5.33,5.33,0,0,0,.24-.56c.12-.31.26-.65.42-1s.28-.64.37-.83c.17-.36.43-.85.78-1.46a20.51,20.51,0,0,1,1.14-1.77c.61-.92,1.13-1.65,1.53-2.18a14.23,14.23,0,0,1,1.15-1.34,9.88,9.88,0,0,1,1.24-1c.45-.33,1.05-.74,1.77-1.24a2.77,2.77,0,0,1,1.55-.54,3,3,0,0,1,1.59.37,2.48,2.48,0,0,1,1.09,1.17,3.45,3.45,0,0,1,.35,1.61,7.6,7.6,0,0,1-.29,2,8.87,8.87,0,0,1-.8,2,6.09,6.09,0,0,1-1.18,1.54.82.82,0,0,1-.76.29,2.32,2.32,0,0,1-.78-.51,4.55,4.55,0,0,1-.3-.64c0-.07,0-.11.11-.13a5.6,5.6,0,0,0,.51-.77c.21-.36.43-.75.64-1.17a8.27,8.27,0,0,0,.45-1c.17-.89.29-1.53.35-1.9a.94.94,0,0,0-.19-.85.44.44,0,0,0-.37-.09,2.5,2.5,0,0,0-.78.32,7.32,7.32,0,0,0-1.92,1.42,17.66,17.66,0,0,0-2.18,2.45c-.85,1.13-1.57,2.13-2.14,3A11.11,11.11,0,0,0,6.94,21c0,.09-.16.37-.35.84a1.89,1.89,0,0,1-.09.62,7,7,0,0,1-.29.85,15.25,15.25,0,0,0-.42,3.05A12.16,12.16,0,0,0,6,29.14a3.3,3.3,0,0,0,.72,1.7A1.54,1.54,0,0,0,7.82,31a7.11,7.11,0,0,0,1.65-.45c.62-.23,1.25-.49,1.89-.76a11.59,11.59,0,0,0,1.41-.71,6.9,6.9,0,0,0,1-.67,5,5,0,0,1,.65-.4,1.57,1.57,0,0,1,.69-.21,1.5,1.5,0,0,1,.51-.13c.05,0,.07.12.07.29a1.56,1.56,0,0,1-.5,1,5.19,5.19,0,0,1-1.26,1,5.21,5.21,0,0,1-.67.54,4,4,0,0,1-.87.45,10,10,0,0,1-1.66,1,10.54,10.54,0,0,1-2,.74A4.17,4.17,0,0,1,6.85,32.79Z" transform="translate(-3.67 -8.79)" />
			<path class="cls-2" d="M18.53,29.85a1.09,1.09,0,0,0-.32-.4c-.13-.1-.19-.19-.19-.27s0-.18,0-.28a.5.5,0,0,0-.14-.27c-.11-.13-.1-.42,0-.88a12.74,12.74,0,0,1,.64-1.69q.45-1,1-2.13a4.47,4.47,0,0,0,.52-.67,3.36,3.36,0,0,1,.38-.55.36.36,0,0,1,.1-.24.28.28,0,0,1,.22-.11v-.19a1.19,1.19,0,0,1,.3-.55c.21-.25.46-.53.76-.84s.6-.61.92-.9a5,5,0,0,1,.8-.62,3.39,3.39,0,0,1,1.4-.55,1.55,1.55,0,0,1,1.23.32c.06.07.17.17.32.32s.32.32.53.5l.62.56,1.18,1.05-.57,1.6a4.29,4.29,0,0,0-.21,2.24A5.86,5.86,0,0,0,28.7,27a1.74,1.74,0,0,0,.66.67,2.36,2.36,0,0,0,.94.38,1.12,1.12,0,0,1,.48.2.57.57,0,0,1,.23.51,1,1,0,0,1-.13.51.72.72,0,0,1-.45.26,2.78,2.78,0,0,1-2-.52,5.9,5.9,0,0,1-1.68-2.11,5.38,5.38,0,0,1-.33-.72,4.78,4.78,0,0,1-.24-.69l-.48.6c-.24.28-.42.49-.55.62a15,15,0,0,1-3.92,3.09A2.7,2.7,0,0,1,18.53,29.85ZM20.37,28a5.2,5.2,0,0,0,1.49-.88c.72-.62,1.45-1.3,2.19-2.05A15.88,15.88,0,0,0,25.82,23l.71-1.15a2.58,2.58,0,0,0-.69-1,1.14,1.14,0,0,0-.62-.27c-.28,0-.69.26-1.24.77a14.48,14.48,0,0,0-1.74,2.05,24.52,24.52,0,0,0-1.76,2.81c-.21.43-.48,1-.8,1.83C19.68,28.21,19.91,28.2,20.37,28Z" transform="translate(-3.67 -8.79)" />
			<path class="cls-2" d="M32.9,29.88a1.25,1.25,0,0,1-.4-.45,1.62,1.62,0,0,1,0-.86A12,12,0,0,1,32.74,27c.1-.45.23-1,.38-1.58a9,9,0,0,1,.37-1.31c.2-.62.45-1.29.75-2s.6-1.41.9-2.06a10.86,10.86,0,0,1,.76-1.46.88.88,0,0,1,.63-.16,1,1,0,0,1,.62.29c.24.19.27.53.11,1a21.61,21.61,0,0,1-1,2.25l-.58,1.3a1.16,1.16,0,0,0-.16.51c0,.06.12,0,.29-.08a3.54,3.54,0,0,1,.7-.81c.34-.31.71-.62,1.09-.92l1.09-.8a8,8,0,0,1,.7-.44,2.78,2.78,0,0,1,.6-.28,4.55,4.55,0,0,0,.46-.17A2.64,2.64,0,0,1,42,20c.52.07.84.26,1,.58a.8.8,0,0,0,.39.51c.08,0,.14.06.16.19s-.11.24-.34.27a7.72,7.72,0,0,1-.85.08,3,3,0,0,0-.73.16l-.77.32c-.81.47-1.58.93-2.32,1.38a9.94,9.94,0,0,0-2.13,1.79,5.37,5.37,0,0,0-.45.61l-.48.77a1.91,1.91,0,0,0-.32.7c-.1.36-.19.71-.27,1a5.47,5.47,0,0,0-.11.59,2.92,2.92,0,0,1-.42.9c-.25.34-.47.51-.64.51S33.24,30.22,32.9,29.88Z" transform="translate(-3.67 -8.79)" />
			<path class="cls-2" d="M44.77,31a.9.9,0,0,1-1-.26,2.13,2.13,0,0,1-.43-1.28,7.39,7.39,0,0,1,.19-2,6.22,6.22,0,0,0,.26-.76,2.57,2.57,0,0,0,.09-.59c.05-.21.13-.53.26-.94l.41-1.3c.15-.45.3-.85.44-1.2s.23-.57.27-.65.16-.08.22-.23a1,1,0,0,0,.1-.45,1.84,1.84,0,0,1,.11-.57,1.39,1.39,0,0,1,.24-.45,1.12,1.12,0,0,1,.08-.37,1.1,1.1,0,0,0,.08-.33.52.52,0,0,1,.08-.26.5.5,0,0,0,.08-.26,12.88,12.88,0,0,0,.59-1.32c.25-.61.52-1.29.8-2s.56-1.48.82-2.2.46-1.34.62-1.84a4.78,4.78,0,0,0,.24-.92.46.46,0,0,1,.51-.51.7.7,0,0,1,.24-.13l.28,0,.51.51a.85.85,0,0,1,.3.52,4.27,4.27,0,0,1,0,.67,2.3,2.3,0,0,1-.1.73,6.28,6.28,0,0,1-.38.93q-.28.62-.9,1.89-.26.64-.54,1.2a2.51,2.51,0,0,0-.29.69,1,1,0,0,1-.11.38c-.07.17-.15.39-.24.64l-.35.75c-.15.34-.3.69-.47,1.06s-.29.69-.39,1a2.91,2.91,0,0,0-.17.46,2.26,2.26,0,0,1,0,.26.44.44,0,0,1-.15.26c-.08,0-.13.11-.15.35A7.85,7.85,0,0,1,46.46,24c-.34,1.18-.65,2.26-.94,3.24a8.78,8.78,0,0,0-.43,2.36c0,.52,0,.85,0,1A.49.49,0,0,1,44.77,31Z" transform="translate(-3.67 -8.79)" />
			<path class="cls-2" d="M51.42,30.52a1.14,1.14,0,0,1-.65-.16q-.24-.16-.6-.45a4.25,4.25,0,0,1-.86-1.23,2,2,0,0,1-.16-1.14,1.74,1.74,0,0,0,.06-.73q-.15-.16-.09-.21a.59.59,0,0,0,.13-.18c.12,0,.17-.11.12-.35A2.7,2.7,0,0,1,49.63,25a8.8,8.8,0,0,1,.8-1.63c.13-.21.32-.5.58-.85a12.87,12.87,0,0,1,.84-1,7.52,7.52,0,0,1,.85-.85,8.45,8.45,0,0,1,1.41-1,4.89,4.89,0,0,1,1.31-.48,5,5,0,0,1,1-.16q.27,0,.75.51a2.18,2.18,0,0,1,1.5,2.08,7.37,7.37,0,0,1-.14,2.19A8.74,8.74,0,0,1,57,26.78a8.68,8.68,0,0,1-1.47,1.71,12,12,0,0,1-1.6,1.1,6.52,6.52,0,0,1-1.22.66A4.58,4.58,0,0,1,51.42,30.52Zm3.07-3.39a11.18,11.18,0,0,0,1.24-1.63,11.1,11.1,0,0,0,.88-2,3.23,3.23,0,0,0,.16-.88,6.44,6.44,0,0,0,0-1c0-.31-.11-.48-.24-.53a1.48,1.48,0,0,0-.93-.14,2.46,2.46,0,0,0-1.18.62,8.21,8.21,0,0,0-1.73,2.07,26.84,26.84,0,0,0-1.44,2.8A2.51,2.51,0,0,0,51,28.33c.18.46.58.62,1.19.48A5.32,5.32,0,0,0,54.49,27.13Z" transform="translate(-3.67 -8.79)" />
			<path class="cls-2" d="M63,30.78a1.66,1.66,0,0,1-.72-.37,3.1,3.1,0,0,1-.64-.71,2.47,2.47,0,0,1-.37-.72s-.05-.12-.16-.25-.13-.35-.14-.85a12.68,12.68,0,0,1,.08-1.68,12.44,12.44,0,0,1,.22-1.47c.11-.34.27-.81.48-1.39s.4-1.12.54-1.59l.87-1.85-1.28-.36a.67.67,0,0,1-.37-.25.56.56,0,0,1-.14-.32,1.12,1.12,0,0,1,.28-.63c.2-.24.33-.36.42-.36a3.8,3.8,0,0,0,.59,0c.29,0,.57,0,.85,0a2.66,2.66,0,0,0,.51-.07,1.28,1.28,0,0,0,.26-.17.74.74,0,0,0,.19-.34c.11-.23.2-.45.29-.66a4.93,4.93,0,0,1,.35-.68l.37-.71c.09-.19.25-.46.46-.8a5.67,5.67,0,0,0,.35-.54,2,2,0,0,1,.48-.55.84.84,0,0,1,.6-.24,1.57,1.57,0,0,1,.78.44,1.32,1.32,0,0,1,.29.48,1.14,1.14,0,0,1-.26.6,10.52,10.52,0,0,1-.59,1.09c-.22.37-.43.73-.62,1.09-.34.47-.41.74-.2.8a6.34,6.34,0,0,0,1.8-.13,2.13,2.13,0,0,1,1.34.08,1,1,0,0,1,.48.79c.06.51,0,.82-.16.92a3.71,3.71,0,0,1-1.47.16,9.22,9.22,0,0,1-1.31.15h-.8l-.55,0a1.88,1.88,0,0,0-.38.06.61.61,0,0,0-.37.21,3,3,0,0,0-.24.4,2.68,2.68,0,0,0-.38.67c-.17.36-.39.76-.64,1.18-.3.9-.56,1.79-.77,2.68s-.39,1.74-.51,2.57a1.92,1.92,0,0,0,0,1.11c.1.2.38.32.83.36a7.27,7.27,0,0,0,1.14,0,5.57,5.57,0,0,0,1.23-.18l.73-.33a6.68,6.68,0,0,0,.71-.37l.86-.51c.11-.17.23-.23.35-.16a.73.73,0,0,1,.32.48,2.19,2.19,0,0,1-.16.8c-.1.27-.5.6-1.18,1a7.05,7.05,0,0,1-2.64,1.07A6.3,6.3,0,0,1,63,30.78Z" transform="translate(-3.67 -8.79)" />
			<path class="cls-2" d="M71.33,29.85a1.2,1.2,0,0,0-.32-.4c-.13-.1-.2-.19-.2-.27a2.72,2.72,0,0,0,0-.28.46.46,0,0,0-.15-.27c-.1-.13-.09-.42,0-.88a11.47,11.47,0,0,1,.64-1.69c.29-.68.65-1.39,1-2.13a3.89,3.89,0,0,0,.51-.67,3.23,3.23,0,0,1,.39-.55.4.4,0,0,1,.09-.24.31.31,0,0,1,.23-.11v-.19a1.19,1.19,0,0,1,.3-.55c.2-.25.46-.53.75-.84s.61-.61.93-.9a5,5,0,0,1,.8-.62,3.35,3.35,0,0,1,1.39-.55A1.57,1.57,0,0,1,79,19c.06.07.17.17.32.32s.32.32.52.5l.63.56,1.18,1.05-.57,1.6a4.29,4.29,0,0,0-.21,2.24A5.58,5.58,0,0,0,81.5,27a1.74,1.74,0,0,0,.66.67,2.36,2.36,0,0,0,.94.38,1.12,1.12,0,0,1,.48.2.57.57,0,0,1,.23.51,1,1,0,0,1-.13.51.72.72,0,0,1-.45.26,2.78,2.78,0,0,1-2-.52,5.7,5.7,0,0,1-1.68-2.11,4.34,4.34,0,0,1-.33-.72,4.78,4.78,0,0,1-.24-.69l-.48.6c-.24.28-.42.49-.55.62a15,15,0,0,1-3.92,3.09A2.7,2.7,0,0,1,71.33,29.85ZM73.17,28a5.16,5.16,0,0,0,1.48-.88c.73-.62,1.46-1.3,2.2-2.05A16.7,16.7,0,0,0,78.62,23l.71-1.15a2.58,2.58,0,0,0-.69-1A1.14,1.14,0,0,0,78,20.6c-.27,0-.68.26-1.23.77A14.48,14.48,0,0,0,75,23.42a24.52,24.52,0,0,0-1.76,2.81c-.22.43-.48,1-.8,1.83C72.48,28.21,72.71,28.2,73.17,28Z" transform="translate(-3.67 -8.79)" />
			<path class="cls-2" d="M97.76,32.6c-.39-.11-.81-.23-1.28-.38a.28.28,0,0,0,0-.29.66.66,0,0,0-.46-.16,3.76,3.76,0,0,1-.88-.72,5.3,5.3,0,0,1-.66-.85,5.78,5.78,0,0,1-.38-.7,1.69,1.69,0,0,1-.21-.6c0-.07.13-.16.37-.27s.41-.22.52-.16a1.55,1.55,0,0,1,.44.64,2.57,2.57,0,0,0,1.42,1.12,5.68,5.68,0,0,0,2.27.34,6.49,6.49,0,0,0,2.42-.56,3,3,0,0,0,1.49-1c.2-.35.12-.8-.24-1.36a1.65,1.65,0,0,0-.23-.42,4.7,4.7,0,0,0-.4-.41L101,26l-.88-.42-.85-.42a10.75,10.75,0,0,1-1.23-.75,11.89,11.89,0,0,1-1.36-1.1,5.64,5.64,0,0,1-.93-1.12A2.92,2.92,0,0,1,95,20.84a4.9,4.9,0,0,1-.2-1.81,4.45,4.45,0,0,1,.48-1.73A7,7,0,0,1,96,16.2c.31-.44.66-.88,1-1.33s.76-.85,1.12-1.21a5.15,5.15,0,0,1,.9-.77c.17-.17.44-.44.83-.8a.17.17,0,0,1,.19-.16,5.93,5.93,0,0,1,.7-.32,4.1,4.1,0,0,0,1.19-.83,36.77,36.77,0,0,1,3.49-1.51,6.85,6.85,0,0,1,2.2-.48,3.5,3.5,0,0,1,1.46.37,3.26,3.26,0,0,1,1.09.88,2.6,2.6,0,0,1,.53,1.31,3,3,0,0,1-.13,1.78,6.75,6.75,0,0,1-1,1.89A5,5,0,0,1,108,16.34a2.85,2.85,0,0,1-1.2.34q-.3,0-.27-.66a1.45,1.45,0,0,1,.17-.6,7.85,7.85,0,0,1,1-1.25,8.38,8.38,0,0,0,1.25-2.4q.23-.9-.42-1a1.53,1.53,0,0,0-.69,0c-.33,0-.69.1-1.08.17s-.73.15-1,.23-.42.13-.42.17,0,.18-.13.16a3.16,3.16,0,0,0-.54.26c-.32.17-.7.39-1.15.67l-1.35.83L101,14a3,3,0,0,0-.5.37c0,.23-.29.45-.73.64a4,4,0,0,0-1.17,1.12c-.35.49-.74,1.1-1.17,1.82a4.69,4.69,0,0,0-.77,1.59,2.08,2.08,0,0,0,0,1.36,3.71,3.71,0,0,0,1,1.31,11.58,11.58,0,0,0,2.08,1.54,22.45,22.45,0,0,1,2,1.2,10.82,10.82,0,0,1,1.42,1.13,3.5,3.5,0,0,1,.75,1,4,4,0,0,1,.75,2.18,2.76,2.76,0,0,1-.11.93,3.47,3.47,0,0,1-.78,1.05,1.4,1.4,0,0,1-1,.51,1.6,1.6,0,0,0-.52.23,2.18,2.18,0,0,1-.4.22,3.51,3.51,0,0,1-1,.26,14.17,14.17,0,0,1-1.58.17A14.48,14.48,0,0,1,97.76,32.6Z" transform="translate(-3.67 -8.79)" />
			<path class="cls-2" d="M110.27,30.52a1.15,1.15,0,0,1-.66-.16c-.16-.11-.35-.26-.59-.45a4.25,4.25,0,0,1-.86-1.23,1.92,1.92,0,0,1-.16-1.14,1.92,1.92,0,0,0,.06-.73c-.1-.11-.14-.18-.09-.21a.46.46,0,0,0,.12-.18c.13,0,.17-.11.13-.35a2.54,2.54,0,0,1,.26-1.12,8.8,8.8,0,0,1,.8-1.63c.13-.21.32-.5.57-.85s.54-.7.85-1a6.77,6.77,0,0,1,.85-.85,7.7,7.7,0,0,1,1.41-1,4.77,4.77,0,0,1,1.31-.48,4.94,4.94,0,0,1,1-.16q.27,0,.75.51a2.53,2.53,0,0,1,1.07.77,2.62,2.62,0,0,1,.43,1.31,7.37,7.37,0,0,1-.14,2.19,8.74,8.74,0,0,1-1.52,3.06,9.4,9.4,0,0,1-1.47,1.71,12.7,12.7,0,0,1-1.6,1.1,6.52,6.52,0,0,1-1.22.66A4.58,4.58,0,0,1,110.27,30.52Zm3.07-3.39a11.8,11.8,0,0,0,1.23-1.63,10.42,10.42,0,0,0,.88-2,2.89,2.89,0,0,0,.16-.88,6.49,6.49,0,0,0,0-1c0-.31-.11-.48-.24-.53a1.49,1.49,0,0,0-.93-.14,2.42,2.42,0,0,0-1.18.62,8,8,0,0,0-1.73,2.07,26.84,26.84,0,0,0-1.44,2.8,2.51,2.51,0,0,0-.21,1.84c.18.46.58.62,1.18.48A5.33,5.33,0,0,0,113.34,27.13Z" transform="translate(-3.67 -8.79)" />
			<path class="cls-2" d="M126.69,30.94a4.09,4.09,0,0,1-.64-.88,5.27,5.27,0,0,1-.52-1.3,2.4,2.4,0,0,1,0-.7,3.68,3.68,0,0,0,0-.64,1.89,1.89,0,0,1-.3.46,5,5,0,0,1-.4.4c-.09.09-.28.25-.58.5a5.14,5.14,0,0,1-.9.59,4.12,4.12,0,0,1-1.74.73,1.49,1.49,0,0,1-1.3-.7,2.4,2.4,0,0,1-.72-.93,2.44,2.44,0,0,1,0-1.41,12.44,12.44,0,0,1,.32-2.19,17.61,17.61,0,0,1,1-2.86c.45-.88.79-1.52,1-1.94a8.43,8.43,0,0,1,.45-.75,1,1,0,0,1,.8,0,.76.76,0,0,1,.38.62,1.43,1.43,0,0,1,0,1.09,13,13,0,0,1-.81,1.89c-.3.72-.57,1.45-.82,2.17a7.78,7.78,0,0,0-.43,1.86c0,.51.08.82.38.93a1.4,1.4,0,0,0,1-.1,4.42,4.42,0,0,0,1.63-1.28,11.27,11.27,0,0,0,1.78-3.1,8.91,8.91,0,0,0,.38-1.14,5.2,5.2,0,0,0,.16-1.1,1.31,1.31,0,0,1,0-.69,1,1,0,0,1,.5-.53,1.17,1.17,0,0,1,.35-.3c.15-.1.24-.09.29,0l.51,0c.08,0,.14,0,.17.14a.64.64,0,0,0,.21.31c.24.19.3.61.19,1.25a12.41,12.41,0,0,1-.89,2.68,17.46,17.46,0,0,0-.82,2,5.19,5.19,0,0,0-.24,1.31,2.7,2.7,0,0,0,.23,1.09,2.54,2.54,0,0,0,.7.93.8.8,0,0,1,.4.51,2.87,2.87,0,0,1,0,.67.73.73,0,0,1-.37.46,1.31,1.31,0,0,1-.69.18A1.24,1.24,0,0,1,126.69,30.94Z" transform="translate(-3.67 -8.79)" />
			<path class="cls-2" d="M142.21,29.53a1.92,1.92,0,0,1-1.06-.27,2,2,0,0,1-.7-.92,6.25,6.25,0,0,1-.21-1,6.72,6.72,0,0,1-.08-1.06,1.58,1.58,0,0,1,.09-.66.58.58,0,0,0,.12-.46c0-.22,0-.46,0-.72q0-.64-.3-.72a1.15,1.15,0,0,0-.79.21l-1.5.94c-.62.4-1.27.83-1.94,1.3a23.88,23.88,0,0,0-1.9,1.47,4.24,4.24,0,0,0-.85,1.17c-.1.27-.23.4-.4.4a.41.41,0,0,1-.43,0,5.41,5.41,0,0,1-.5-.36l-.45-.5A1.53,1.53,0,0,1,131,28a5.13,5.13,0,0,1,.09-.67q.1-.51.24-1c.1-.34.17-.57.21-.68s.2-.1.27-.32a3.7,3.7,0,0,1,.37-.7,4.52,4.52,0,0,1,.34-1c.18-.44.34-.83.49-1.17a7.75,7.75,0,0,0,.63-1.28,6.23,6.23,0,0,0,.24-1.28.25.25,0,0,1,.06-.24.29.29,0,0,1,.22-.11.56.56,0,0,1,.61-.14,1.28,1.28,0,0,1,.64.49,2.11,2.11,0,0,1,.47,1.59,7.19,7.19,0,0,1-1,2.32c-.15.34-.27.6-.34.78a1.12,1.12,0,0,0-.11.43l1.1-.75c.29-.2.52-.36.69-.46a7.07,7.07,0,0,1,.74-.58c.38-.28.79-.55,1.23-.82a3.54,3.54,0,0,1,1-.46,4.56,4.56,0,0,1,.55-.24,1.47,1.47,0,0,1,.41-.11,1.3,1.3,0,0,1,.66.27,4.54,4.54,0,0,1,.75.64,1.52,1.52,0,0,1,.42.62,2.17,2.17,0,0,0,0,.26,2.38,2.38,0,0,0,0,.26,4,4,0,0,1,.15,1.12,10.29,10.29,0,0,1,0,1.28c0,.38-.12.6-.23.67s.08.16.16.16V27c-.1,0-.15.09-.12.27a1.72,1.72,0,0,0,.2.59,2,2,0,0,0,.37.51.83.83,0,0,1,.32.72C142.74,29.29,142.55,29.44,142.21,29.53Z" transform="translate(-3.67 -8.79)" />
			<path class="cls-2" d="M153.66,31.61a.83.83,0,0,1-.69-.11,1.25,1.25,0,0,1-.4-.6,7.61,7.61,0,0,1-.36-1.61,7,7,0,0,1-.05-1.55l.06-.68-1.25,1a7.39,7.39,0,0,1-2.09,1.37,4.74,4.74,0,0,1-1.78.42,2.22,2.22,0,0,1-.7-.26,2.69,2.69,0,0,1-.63-.48,2.51,2.51,0,0,1-.43-.61,2.47,2.47,0,0,1-.11-1.21,8,8,0,0,1,.38-1.68,12.22,12.22,0,0,1,.77-1.79,7.8,7.8,0,0,1,1.07-1.56,4.4,4.4,0,0,1,2.28-2,3,3,0,0,1,2.39.35,2.67,2.67,0,0,0,1,.32c.13,0,.26-.26.36-.73s.17-.69.26-1,.22-.83.42-1.43c.53-1.62,1-2.89,1.39-3.8s.75-1.72,1.07-2.4a2.69,2.69,0,0,1,.59-.92.73.73,0,0,1,.5-.14,1,1,0,0,1,.64.26,1.7,1.7,0,0,1,.45.7,1.14,1.14,0,0,1,.11.5,1.51,1.51,0,0,1-.21.56c-.28.51-.6,1.19-1,2s-.74,1.76-1.12,2.77-.72,2-1,3-.58,1.85-.8,2.59a14.47,14.47,0,0,0-.33,1.8q-.15,1.08-.24,2.22c-.07.76-.1,1.43-.12,2a6.82,6.82,0,0,0,0,1.13,3.18,3.18,0,0,1,.18,1,.5.5,0,0,1-.18.43A1,1,0,0,1,153.66,31.61Zm-5.41-3.55a2.77,2.77,0,0,0,.88-.36,10.13,10.13,0,0,0,.91-.6c.65-.49,1.2-.94,1.67-1.35a3.05,3.05,0,0,0,.93-1.85,2,2,0,0,0-.11-1,2.21,2.21,0,0,0-.56-.69,1.66,1.66,0,0,0-1-.21,2.42,2.42,0,0,0-1.36.69,8.41,8.41,0,0,0-1.49,1.89A9,9,0,0,0,147,27.51a.45.45,0,0,0,.19.51A1.47,1.47,0,0,0,148.25,28.06Z" transform="translate(-3.67 -8.79)" />
			<path class="cls-2" d="M159.8,31.13a5.09,5.09,0,0,1-1.15-.69,3,3,0,0,1-.7-.72.65.65,0,0,1,.09-.4.88.88,0,0,1,.57-.1c.3,0,.81.06,1.51.15a7.71,7.71,0,0,0,1-.07,6.8,6.8,0,0,0,1.07-.19c.33-.08.51-.19.56-.32s.13,0,.06-.11l-.22-.24a.55.55,0,0,1-.29-.11.48.48,0,0,0-.29-.11c0-.11-.1-.23-.3-.37a3.51,3.51,0,0,0-.63-.34c-.47-.38-.87-.73-1.21-1s-.47-.51-.39-.62v-.16c-.15,0-.31-.22-.49-.64a3,3,0,0,1-.27-1.15,2.88,2.88,0,0,1,.22-1,7.78,7.78,0,0,1,.61-1.23,5.15,5.15,0,0,1,.8-1.06,14.35,14.35,0,0,1,1.44-1.17c.57-.41,1.14-.79,1.71-1.12a6,6,0,0,1,1.42-.65,3,3,0,0,1,1.07-.23,1.73,1.73,0,0,1,.89.23,1.93,1.93,0,0,1,.59.46c.18.21.34.41.48.61a1.77,1.77,0,0,1,.27.53,5.39,5.39,0,0,1-.07.85A5,5,0,0,1,168,21c-.07.24-.19.35-.34.35a.19.19,0,0,0-.16.2,1.09,1.09,0,0,1-.48.73,2.89,2.89,0,0,1-1.05.5.42.42,0,0,1-.55-.34.81.81,0,0,1-.12-.22.15.15,0,0,0-.16-.1.57.57,0,0,1-.2-.41.66.66,0,0,1,.2-.36c.1,0,.24-.12.41-.36a5.73,5.73,0,0,0,.46-.8,1.75,1.75,0,0,0,.21-.6c0-.12,0-.2,0-.22a.8.8,0,0,0-.3,0c-.3.13-.66.3-1.09.51l-1.2.62a3.93,3.93,0,0,0-.81.56l-.16.28s-.08,0-.16,0-.07,0-.21.12-.31.37-.51.65-.4.55-.58.82l-.4.59a1,1,0,0,0-.14.37,1.94,1.94,0,0,0-.08.56c-.09.25-.08.43,0,.53l.7.59c.75.55,1.34,1,1.76,1.37a11.7,11.7,0,0,1,1,.9,1.57,1.57,0,0,1,.39.64c.38.64.5,1.13.35,1.47a2,2,0,0,1-1.09.9,3.33,3.33,0,0,1-1.05.25,12.63,12.63,0,0,1-1.51.12A8.36,8.36,0,0,1,159.8,31.13Z" transform="translate(-3.67 -8.79)" />
		</g>
	</g>
</svg>
