<svg xmlns="http://www.w3.org/2000/svg" viewBox="0 0 166.95 25.23" class="letters letters--effect-1">
	<!--C-->
	<g fill="none" fill-rule="evenodd" stroke="currentColor" stroke-width="1" class="letter letter-1">
		<path class="letter__layer color-1" d="M5.82,28.55c-.32-.12-.64-.26-1-.41a3.05,3.05,0,0,1-.93-.66,3.63,3.63,0,0,1-.75-1.2,8.92,8.92,0,0,1-.44-1.82,14.8,14.8,0,0,1-.08-2.08,15.35,15.35,0,0,1,.24-2.9A13.27,13.27,0,0,1,3.65,17a4.45,4.45,0,0,0,.24-.56c.11-.31.25-.65.41-1s.28-.64.37-.83c.17-.36.43-.85.78-1.46s.73-1.2,1.14-1.77c.62-.92,1.13-1.64,1.54-2.18A11.79,11.79,0,0,1,9.28,7.82a9.9,9.9,0,0,1,1.23-1C11,6.45,11.56,6,12.29,5.55A2.66,2.66,0,0,1,13.84,5a3,3,0,0,1,1.58.37,2.52,2.52,0,0,1,1.09,1.17,3.48,3.48,0,0,1,.35,1.61,7.2,7.2,0,0,1-.29,2,9.15,9.15,0,0,1-.8,2,5.81,5.81,0,0,1-1.18,1.53.81.81,0,0,1-.75.29,2,2,0,0,1-.79-.51,4,4,0,0,1-.3-.64c0-.07,0-.11.11-.13a5,5,0,0,0,.51-.77c.22-.36.43-.75.64-1.17a6.35,6.35,0,0,0,.45-1c.17-.9.29-1.53.35-1.91A.92.92,0,0,0,14.62,7a.43.43,0,0,0-.37-.09,2.79,2.79,0,0,0-.78.32A7.74,7.74,0,0,0,11.55,8.6a17.66,17.66,0,0,0-2.18,2.45c-.85,1.13-1.56,2.13-2.14,3a11,11,0,0,0-1.31,2.69c0,.08-.16.36-.35.83a2,2,0,0,1-.1.62,5.23,5.23,0,0,1-.29.85,16,16,0,0,0-.41,3.06,11.7,11.7,0,0,0,.17,2.8,3.3,3.3,0,0,0,.72,1.69,1.58,1.58,0,0,0,1.14.19,7.56,7.56,0,0,0,1.65-.44c.61-.24,1.24-.49,1.88-.77a10.91,10.91,0,0,0,1.41-.71,5.86,5.86,0,0,0,1-.67,4.56,4.56,0,0,1,.66-.4,1.5,1.5,0,0,1,.69-.21c.29-.1.46-.15.51-.12s.06.11.06.28a1.58,1.58,0,0,1-.49,1,5.71,5.71,0,0,1-1.27,1,4.59,4.59,0,0,1-.67.54,4.17,4.17,0,0,1-.86.45,10.09,10.09,0,0,1-1.67,1,10.54,10.54,0,0,1-2,.74A4.17,4.17,0,0,1,5.82,28.55Z" transform="translate(-2.65 -3.39)" />
	</g>
  <!--A-->
	<g fill="none" fill-rule="evenodd" stroke="currentColor" stroke-width="1" class="letter letter-2">
		<path class="letter__layer color-2" d="M17.5,25.61a1.07,1.07,0,0,0-.32-.4c-.13-.1-.19-.19-.19-.27a2.45,2.45,0,0,0,0-.27.5.5,0,0,0-.14-.28c-.11-.12-.1-.42,0-.88a13.28,13.28,0,0,1,.64-1.69c.3-.67.65-1.38,1.06-2.13a3.89,3.89,0,0,0,.51-.67,4.16,4.16,0,0,1,.38-.55.42.42,0,0,1,.1-.24.29.29,0,0,1,.22-.11v-.19a1.09,1.09,0,0,1,.31-.54,10.18,10.18,0,0,1,.75-.85q.45-.46.93-.9a5.16,5.16,0,0,1,.8-.62A3.35,3.35,0,0,1,24,14.47a1.58,1.58,0,0,1,1.23.32l.32.32.53.5.62.56,1.19,1.06-.58,1.6a4.28,4.28,0,0,0-.21,2.24,5.52,5.52,0,0,0,.63,1.66,1.63,1.63,0,0,0,.65.67,2.43,2.43,0,0,0,1,.39,1,1,0,0,1,.48.19.56.56,0,0,1,.22.51.88.88,0,0,1-.13.51.66.66,0,0,1-.44.26,2.79,2.79,0,0,1-2-.51,5.74,5.74,0,0,1-1.68-2.12,3.52,3.52,0,0,1-.34-.72,5.32,5.32,0,0,1-.24-.68l-.48.59a7.38,7.38,0,0,1-.54.62,15.14,15.14,0,0,1-3.92,3.09A2.72,2.72,0,0,1,17.5,25.61Zm1.84-1.81a5.07,5.07,0,0,0,1.49-.88c.72-.62,1.46-1.3,2.19-2.05a16,16,0,0,0,1.78-2.08l.7-1.15a2.46,2.46,0,0,0-.69-1,1.11,1.11,0,0,0-.62-.27c-.28,0-.69.26-1.23.77a14.39,14.39,0,0,0-1.75,2.05A26,26,0,0,0,19.45,22c-.21.43-.48,1-.8,1.83C18.65,24,18.88,24,19.34,23.8Z" transform="translate(-2.65 -3.39)" />
	</g>
  <!--R-->
	<g fill="none" fill-rule="evenodd" stroke="currentColor" stroke-width="1" class="letter letter-3">
		<path class="letter__layer color-3" d="M31.87,25.64a1.35,1.35,0,0,1-.4-.45,1.62,1.62,0,0,1,0-.86,13.7,13.7,0,0,1,.26-1.58c.11-.46.23-1,.38-1.59a13.44,13.44,0,0,1,.37-1.31c.2-.62.45-1.29.75-2s.6-1.41.9-2.06a10.69,10.69,0,0,1,.77-1.46.92.92,0,0,1,.62-.16,1,1,0,0,1,.62.29c.24.19.28.53.12,1a23.21,23.21,0,0,1-1,2.26q-.39.86-.57,1.29a1.25,1.25,0,0,0-.17.51c0,.06.12,0,.29-.08a3.63,3.63,0,0,1,.71-.81c.34-.31.7-.62,1.08-.91s.75-.57,1.09-.8a5.6,5.6,0,0,1,.71-.45,2.46,2.46,0,0,1,.59-.27l.46-.18A2.74,2.74,0,0,1,41,15.75a1.08,1.08,0,0,1,1,.58.82.82,0,0,0,.38.51c.09,0,.14.07.16.19s-.11.24-.34.28l-.84.08a2.31,2.31,0,0,0-.74.16l-.77.32c-.81.46-1.58.92-2.32,1.37A10.14,10.14,0,0,0,35.33,21a6.45,6.45,0,0,0-.45.61l-.48.77a1.69,1.69,0,0,0-.32.7c-.11.37-.2.71-.27,1a4.05,4.05,0,0,0-.12.6,3,3,0,0,1-.41.89c-.26.34-.47.51-.64.51S32.21,26,31.87,25.64Z" transform="translate(-2.65 -3.39)" />
	</g>
  <!--L-->
	<g fill="none" fill-rule="evenodd" stroke="currentColor" stroke-width="1" class="letter letter-4">
		<path class="letter__layer color-4" d="M43.74,26.76a.91.91,0,0,1-1-.25,2.25,2.25,0,0,1-.43-1.28,7.43,7.43,0,0,1,.19-2.05,5.16,5.16,0,0,0,.26-.75,2.84,2.84,0,0,0,.1-.6,9.27,9.27,0,0,1,.25-.94c.13-.42.27-.85.42-1.3s.29-.84.43-1.2.23-.57.27-.65.16-.08.23-.23a1.19,1.19,0,0,0,.09-.44,1.9,1.9,0,0,1,.11-.58,1.51,1.51,0,0,1,.24-.45,1.18,1.18,0,0,1,.08-.37.82.82,0,0,0,.08-.33.52.52,0,0,1,.08-.26.41.41,0,0,0,.08-.25c.15-.28.35-.72.6-1.33l.8-2c.28-.75.56-1.49.81-2.21s.47-1.34.63-1.84a5,5,0,0,0,.24-.91.57.57,0,0,1,.12-.39A.57.57,0,0,1,48.83,6a.46.46,0,0,1,.24-.12.84.84,0,0,1,.27,0l.51.52a.92.92,0,0,1,.31.51,4.38,4.38,0,0,1,0,.67,2.78,2.78,0,0,1-.09.74,7.11,7.11,0,0,1-.39.92l-.89,1.89a11.12,11.12,0,0,1-.55,1.2A2.45,2.45,0,0,0,48,13a1,1,0,0,1-.12.38c-.07.17-.15.39-.24.64l-.35.76c-.15.33-.3.68-.46,1.05s-.29.7-.4,1a2.15,2.15,0,0,0-.16.47,2.11,2.11,0,0,1,0,.25.48.48,0,0,1-.14.26c-.09,0-.14.12-.16.35a7.73,7.73,0,0,1-.51,1.7C45.1,21,44.78,22,44.49,23a8.78,8.78,0,0,0-.43,2.37c0,.51,0,.84,0,1A.47.47,0,0,1,43.74,26.76Z" transform="translate(-2.65 -3.39)" />
	</g>
  <!--O-->
	<g fill="none" fill-rule="evenodd" stroke="currentColor" stroke-width="1" class="letter letter-5">
		<path class="letter__layer color-5" d="M50.4,26.28a1.15,1.15,0,0,1-.66-.16,4.89,4.89,0,0,1-.59-.45,4.11,4.11,0,0,1-.87-1.23,2,2,0,0,1-.16-1.13,1.78,1.78,0,0,0,.07-.74c-.11-.11-.14-.18-.1-.21a.5.5,0,0,0,.13-.17c.13,0,.17-.12.13-.36a2.62,2.62,0,0,1,.25-1.12,9.48,9.48,0,0,1,.8-1.63c.13-.21.32-.49.58-.85s.54-.7.85-1.05a7.53,7.53,0,0,1,.85-.85,8,8,0,0,1,1.4-1,6.45,6.45,0,0,1,2.29-.64q.27,0,.75.51A2.64,2.64,0,0,1,57.2,16a2.76,2.76,0,0,1,.43,1.31,7.76,7.76,0,0,1-.15,2.19A8.57,8.57,0,0,1,56,22.54a8.39,8.39,0,0,1-1.47,1.71,12,12,0,0,1-1.6,1.1,6.48,6.48,0,0,1-1.21.66A4.66,4.66,0,0,1,50.4,26.28Zm3.07-3.39a11.8,11.8,0,0,0,1.23-1.63,10.65,10.65,0,0,0,.88-2,3,3,0,0,0,.16-.88,5.47,5.47,0,0,0,0-1c0-.31-.11-.48-.24-.52a1.38,1.38,0,0,0-.92-.15,2.47,2.47,0,0,0-1.19.63,8,8,0,0,0-1.73,2.06,27.88,27.88,0,0,0-1.44,2.8,2.45,2.45,0,0,0-.2,1.84c.18.46.57.62,1.18.48A5.33,5.33,0,0,0,53.47,22.89Z" transform="translate(-2.65 -3.39)" />
	</g>
  <!--T-->
	<g fill="none" fill-rule="evenodd" stroke="currentColor" stroke-width="1" class="letter letter-6">
		<path class="letter__layer color-6" d="M62,26.54a1.65,1.65,0,0,1-.72-.37,3.55,3.55,0,0,1-.64-.7,3.09,3.09,0,0,1-.37-.72c0-.05-.05-.13-.16-.26s-.13-.35-.14-.85A14.65,14.65,0,0,1,60.06,22a12.44,12.44,0,0,1,.22-1.47c.11-.34.27-.81.48-1.39s.4-1.12.55-1.59l.86-1.85-1.28-.35a.74.74,0,0,1-.37-.26.61.61,0,0,1-.14-.32,1.1,1.1,0,0,1,.29-.62c.19-.25.33-.37.41-.37a4,4,0,0,0,.6,0c.28,0,.57,0,.84,0a2.22,2.22,0,0,0,.52-.07,1.23,1.23,0,0,0,.25-.17.66.66,0,0,0,.19-.34c.11-.23.21-.45.29-.65a5.62,5.62,0,0,1,.35-.69c.15-.28.28-.51.37-.71s.25-.45.47-.8c.1-.14.22-.33.35-.54a2.07,2.07,0,0,1,.48-.54A.82.82,0,0,1,66.38,9a1.46,1.46,0,0,1,.78.43,1.32,1.32,0,0,1,.29.48,1.14,1.14,0,0,1-.25.61,9.71,9.71,0,0,1-.6,1.08c-.22.37-.43.73-.62,1.09-.34.47-.41.74-.19.8a5.89,5.89,0,0,0,1.79-.13,2.12,2.12,0,0,1,1.34.08,1,1,0,0,1,.48.79c.07.51,0,.82-.16.93a3.93,3.93,0,0,1-1.47.16,10.71,10.71,0,0,1-1.31.14l-.8,0-.54,0a1.85,1.85,0,0,0-.39.06.64.64,0,0,0-.37.21,3.8,3.8,0,0,0-.24.4,3.06,3.06,0,0,0-.38.67A12,12,0,0,1,63.1,18c-.3.89-.55,1.78-.77,2.67s-.38,1.74-.51,2.57a2,2,0,0,0,0,1.11c.11.2.39.32.83.37a9.29,9.29,0,0,0,1.14,0,5.57,5.57,0,0,0,1.23-.18l.74-.33a7.59,7.59,0,0,0,.7-.37l.87-.51c.1-.17.22-.23.35-.16a.77.77,0,0,1,.32.48,2.42,2.42,0,0,1-.16.8,2.61,2.61,0,0,1-1.19,1A7.05,7.05,0,0,1,64,26.52,6.3,6.3,0,0,1,62,26.54Z" transform="translate(-2.65 -3.39)" />
	</g>
  <!--A-->
	<g fill="none" fill-rule="evenodd" stroke="currentColor" stroke-width="1" class="letter letter-7">
		<path class="letter__layer color-7" d="M70.3,25.61a1.18,1.18,0,0,0-.32-.4c-.13-.1-.19-.19-.19-.27a2.45,2.45,0,0,0,0-.27.5.5,0,0,0-.14-.28c-.11-.12-.1-.42,0-.88a13.28,13.28,0,0,1,.64-1.69c.3-.67.65-1.38,1.06-2.13a3.89,3.89,0,0,0,.51-.67,4.16,4.16,0,0,1,.38-.55.36.36,0,0,1,.1-.24.29.29,0,0,1,.22-.11v-.19a1.09,1.09,0,0,1,.31-.54,10.18,10.18,0,0,1,.75-.85q.45-.46.93-.9a5.16,5.16,0,0,1,.8-.62,3.3,3.3,0,0,1,1.39-.55,1.58,1.58,0,0,1,1.23.32l.32.32c.15.15.32.32.53.5l.62.56,1.19,1.06-.58,1.6a4.28,4.28,0,0,0-.21,2.24,5.52,5.52,0,0,0,.63,1.66,1.63,1.63,0,0,0,.65.67,2.43,2.43,0,0,0,1,.39,1,1,0,0,1,.48.19.56.56,0,0,1,.22.51.88.88,0,0,1-.13.51.66.66,0,0,1-.45.26,2.78,2.78,0,0,1-2-.51,5.74,5.74,0,0,1-1.68-2.12,3.52,3.52,0,0,1-.34-.72,5.32,5.32,0,0,1-.24-.68c-.09.1-.25.3-.48.59s-.42.49-.54.62A15.3,15.3,0,0,1,73,25.53,2.72,2.72,0,0,1,70.3,25.61Zm1.84-1.81a5.2,5.2,0,0,0,1.49-.88c.72-.62,1.45-1.3,2.19-2.05a16,16,0,0,0,1.78-2.08l.7-1.15a2.46,2.46,0,0,0-.69-1,1.11,1.11,0,0,0-.62-.27c-.28,0-.69.26-1.23.77A14.39,14.39,0,0,0,74,19.18,26,26,0,0,0,72.25,22c-.21.43-.48,1-.8,1.83C71.45,24,71.68,24,72.14,23.8Z" transform="translate(-2.65 -3.39)" />
	</g>
  <!--S-->
	<g fill="none" fill-rule="evenodd" stroke="currentColor" stroke-width="1" class="letter letter-8">
		<path class="letter__layer color-8" d="M96.73,28.36c-.38-.11-.81-.23-1.28-.38a.26.26,0,0,0,0-.29.66.66,0,0,0-.46-.16,4,4,0,0,1-.88-.72A5.3,5.3,0,0,1,93.4,26a5.78,5.78,0,0,1-.38-.7,1.74,1.74,0,0,1-.21-.59c0-.08.13-.17.37-.28s.41-.22.53-.16a1.67,1.67,0,0,1,.43.64A2.61,2.61,0,0,0,95.56,26a5.73,5.73,0,0,0,2.28.34,6.48,6.48,0,0,0,2.41-.56,3,3,0,0,0,1.49-1c.2-.35.12-.8-.24-1.36a1.42,1.42,0,0,0-.22-.41,4.63,4.63,0,0,0-.4-.42l-.88-.83-.88-.42-.85-.41A11,11,0,0,1,97,20.15a10.22,10.22,0,0,1-1.36-1.1,5,5,0,0,1-.93-1.12A2.93,2.93,0,0,1,94,16.6a4.9,4.9,0,0,1-.19-1.81,4,4,0,0,1,.48-1.72A6.44,6.44,0,0,1,94.92,12c.31-.44.66-.88,1-1.33s.76-.85,1.12-1.21a6.11,6.11,0,0,1,.9-.77l.83-.8A.18.18,0,0,1,99,7.69a7.59,7.59,0,0,1,.71-.32,4.21,4.21,0,0,0,1.18-.83A36.77,36.77,0,0,1,104.38,5a6.9,6.9,0,0,1,2.21-.48,3.61,3.61,0,0,1,1.45.37,3.38,3.38,0,0,1,1.09.88,2.52,2.52,0,0,1,.53,1.31,2.86,2.86,0,0,1-.13,1.78,6.51,6.51,0,0,1-1,1.89A5.11,5.11,0,0,1,107,12.11a2.87,2.87,0,0,1-1.2.33c-.2,0-.29-.25-.27-.65a1.38,1.38,0,0,1,.18-.61,7,7,0,0,1,1-1.25,8.12,8.12,0,0,0,1.25-2.4c.15-.6,0-.93-.41-1a1.91,1.91,0,0,0-.69,0c-.33,0-.7.1-1.09.17s-.73.15-1,.23-.41.13-.41.17,0,.19-.13.16a2.74,2.74,0,0,0-.55.26c-.32.17-.7.39-1.15.67L101.15,9,100,9.75a2.69,2.69,0,0,0-.49.37c0,.24-.29.45-.74.64a4,4,0,0,0-1.17,1.12q-.52.73-1.17,1.83a4.44,4.44,0,0,0-.76,1.58,2.08,2.08,0,0,0,0,1.36,3.47,3.47,0,0,0,1,1.31,10.8,10.8,0,0,0,2.08,1.54q1.08.6,2,1.2a10.19,10.19,0,0,1,1.42,1.13,3.68,3.68,0,0,1,.76,1,4.29,4.29,0,0,1,.56,1.11,4.24,4.24,0,0,1,.19,1.07,3,3,0,0,1-.11.93,3.52,3.52,0,0,1-.79,1.05,1.36,1.36,0,0,1-.94.52,1.48,1.48,0,0,0-.53.22,2.18,2.18,0,0,1-.4.22,3.41,3.41,0,0,1-.94.26q-.72.12-1.59.18C97.76,28.38,97.22,28.38,96.73,28.36Z" transform="translate(-2.65 -3.39)" />
	</g>
  <!--O-->
	<g fill="none" fill-rule="evenodd" stroke="currentColor" stroke-width="1" class="letter letter-9">
		<path class="letter__layer color-9" d="M109.24,26.28a1.14,1.14,0,0,1-.65-.16,4.89,4.89,0,0,1-.59-.45,4.11,4.11,0,0,1-.87-1.23,2,2,0,0,1-.16-1.13,1.78,1.78,0,0,0,.07-.74c-.11-.11-.14-.18-.1-.21a.67.67,0,0,0,.13-.17c.13,0,.17-.12.13-.36a2.47,2.47,0,0,1,.25-1.12,8.8,8.8,0,0,1,.8-1.63c.13-.21.32-.49.58-.85s.54-.7.84-1.05a8.45,8.45,0,0,1,2.26-1.84,4.89,4.89,0,0,1,1.31-.48,5,5,0,0,1,1-.16q.27,0,.75.51A2.53,2.53,0,0,1,116,16a2.56,2.56,0,0,1,.43,1.31,7.37,7.37,0,0,1-.14,2.19,8.74,8.74,0,0,1-1.52,3.06,8.39,8.39,0,0,1-1.47,1.71,12,12,0,0,1-1.6,1.1,6.23,6.23,0,0,1-1.22.66A4.58,4.58,0,0,1,109.24,26.28Zm3.08-3.39a11.8,11.8,0,0,0,1.23-1.63,10.65,10.65,0,0,0,.88-2,3.38,3.38,0,0,0,.16-.88,6.54,6.54,0,0,0,0-1c0-.31-.11-.48-.24-.52a1.4,1.4,0,0,0-.93-.15,2.49,2.49,0,0,0-1.18.63,8,8,0,0,0-1.73,2.06,27.88,27.88,0,0,0-1.44,2.8,2.51,2.51,0,0,0-.21,1.84c.18.46.58.62,1.19.48A5.39,5.39,0,0,0,112.32,22.89Z" transform="translate(-2.65 -3.39)" />
	</g>
  <!--U-->
	<g fill="none" fill-rule="evenodd" stroke="currentColor" stroke-width="1" class="letter letter-10">
		<path class="letter__layer color-10" d="M125.66,26.7a4.46,4.46,0,0,1-.64-.88,5.68,5.68,0,0,1-.51-1.3,2.35,2.35,0,0,1-.05-.7,3.73,3.73,0,0,0,0-.64,1.64,1.64,0,0,1-.3.46,3,3,0,0,1-.4.4c-.09.09-.28.25-.58.5a5.07,5.07,0,0,1-.89.59,4.39,4.39,0,0,1-1.75.74,1.5,1.5,0,0,1-1.29-.71,2.33,2.33,0,0,1-.72-.93,2.4,2.4,0,0,1,0-1.4,12.42,12.42,0,0,1,.32-2.2,16.9,16.9,0,0,1,1.06-2.86c.45-.87.79-1.52,1-1.94s.39-.66.45-.75a1,1,0,0,1,.8,0,.76.76,0,0,1,.38.62,1.42,1.42,0,0,1,0,1.09,13.16,13.16,0,0,1-.82,1.89c-.3.72-.57,1.45-.82,2.17a8.3,8.3,0,0,0-.43,1.86q-.06.76.39.93a1.38,1.38,0,0,0,1-.1,4.44,4.44,0,0,0,1.64-1.28,11.28,11.28,0,0,0,1.77-3.1A11.11,11.11,0,0,0,125.6,18a6.91,6.91,0,0,0,.16-1.1,1.31,1.31,0,0,1,0-.69,1.09,1.09,0,0,1,.5-.53,1.34,1.34,0,0,1,.35-.3c.15-.1.25-.09.29,0l.51,0q.14,0,.18.15a.59.59,0,0,0,.21.3c.23.19.29.61.19,1.25a13.4,13.4,0,0,1-.9,2.69,16.31,16.31,0,0,0-.81,2,5.27,5.27,0,0,0-.24,1.31,2.57,2.57,0,0,0,.92,2,.76.76,0,0,1,.4.51,2.43,2.43,0,0,1,0,.67.74.74,0,0,1-.37.47,1.41,1.41,0,0,1-.69.17A1.19,1.19,0,0,1,125.66,26.7Z" transform="translate(-2.65 -3.39)" />
	</g>
  <!--N-->
	<g fill="none" fill-rule="evenodd" stroke="currentColor" stroke-width="1" class="letter letter-11">
		<path class="letter__layer color-11" d="M141.18,25.29a1.92,1.92,0,0,1-1.06-.27,2.12,2.12,0,0,1-.7-.91,6.64,6.64,0,0,1-.21-1,8.17,8.17,0,0,1-.08-1.06,1.32,1.32,0,0,1,.1-.65.65.65,0,0,0,.11-.47c0-.22,0-.46,0-.72q0-.63-.3-.72a1.14,1.14,0,0,0-.78.21c-.39.23-.89.55-1.51.94s-1.26.83-1.94,1.3-1.3,1-1.9,1.47a4.24,4.24,0,0,0-.85,1.17c-.09.27-.23.4-.4.4a.42.42,0,0,1-.43,0c-.12-.08-.28-.2-.49-.37l-.45-.5a1.64,1.64,0,0,1-.29-.37,4.19,4.19,0,0,1,.1-.67,9.41,9.41,0,0,1,.24-1c.09-.34.16-.57.2-.67s.2-.11.27-.32a3.48,3.48,0,0,1,.37-.71,6.06,6.06,0,0,1,.34-1c.18-.44.35-.82.5-1.17a8.44,8.44,0,0,0,.62-1.28,5,5,0,0,0,.24-1.28.28.28,0,0,1,.06-.24.31.31,0,0,1,.23-.11.54.54,0,0,1,.6-.14,1.34,1.34,0,0,1,.65.49,2.15,2.15,0,0,1,.46,1.59,6.88,6.88,0,0,1-1,2.32l-.34.78a1.34,1.34,0,0,0-.11.43q.67-.43,1.11-.75c.28-.2.51-.36.68-.46a8.43,8.43,0,0,1,.74-.58,14.55,14.55,0,0,1,1.23-.81,3.38,3.38,0,0,1,1-.47l.54-.24a1.43,1.43,0,0,1,.42-.11,1.25,1.25,0,0,1,.65.27,5.06,5.06,0,0,1,.76.64,1.6,1.6,0,0,1,.41.63,2.11,2.11,0,0,0,0,.25,1.19,1.19,0,0,0,.05.26,4.52,4.52,0,0,1,.14,1.12,10.29,10.29,0,0,1,0,1.28c0,.38-.12.61-.22.67s.07.16.16.16v.16c-.11,0-.15.09-.13.27a1.56,1.56,0,0,0,.21.59,2,2,0,0,0,.37.52.8.8,0,0,1,.31.72C141.71,25.05,141.52,25.21,141.18,25.29Z" transform="translate(-2.65 -3.39)" />
	</g>
  <!--D-->
	<g fill="none" fill-rule="evenodd" stroke="currentColor" stroke-width="1" class="letter letter-12">
		<path class="letter__layer color-12" d="M152.64,27.37a.8.8,0,0,1-.69-.11,1.2,1.2,0,0,1-.4-.59,7.85,7.85,0,0,1-.37-1.62,6.93,6.93,0,0,1-.05-1.55l.07-.67-1.25,1a7.57,7.57,0,0,1-2.1,1.37,4.69,4.69,0,0,1-1.77.42,2.27,2.27,0,0,1-.71-.26,2.2,2.2,0,0,1-.62-.48,2.38,2.38,0,0,1-.43-.6,2.51,2.51,0,0,1-.12-1.22,8,8,0,0,1,.39-1.68,11.64,11.64,0,0,1,.77-1.79A7.09,7.09,0,0,1,146.43,18a4.36,4.36,0,0,1,2.27-2,3,3,0,0,1,2.4.36,3,3,0,0,0,1,.32c.14,0,.26-.27.37-.74s.17-.69.25-1,.23-.83.42-1.42c.53-1.63,1-2.89,1.39-3.81s.75-1.72,1.07-2.4a2.64,2.64,0,0,1,.6-.91.66.66,0,0,1,.49-.15.93.93,0,0,1,.64.26,1.7,1.7,0,0,1,.45.7,1.14,1.14,0,0,1,.11.5,1.51,1.51,0,0,1-.21.56c-.27.51-.6,1.19-1,2s-.75,1.77-1.12,2.77-.72,2-1,3-.59,1.85-.8,2.6a13.71,13.71,0,0,0-.34,1.79q-.13,1.08-.24,2.22c-.06.76-.1,1.43-.11,2a5,5,0,0,0,.05,1.13,3.09,3.09,0,0,1,.17,1,.56.56,0,0,1-.17.44A1.16,1.16,0,0,1,152.64,27.37Zm-5.41-3.55a3.11,3.11,0,0,0,.88-.35c.29-.18.59-.38.91-.61.64-.49,1.19-.94,1.66-1.35a3.05,3.05,0,0,0,.93-1.85,1.85,1.85,0,0,0-.11-1,2.18,2.18,0,0,0-.56-.69,1.59,1.59,0,0,0-1-.2,2.34,2.34,0,0,0-1.36.68,8.71,8.71,0,0,0-1.49,1.89A9,9,0,0,0,146,23.27a.49.49,0,0,0,.19.52A1.57,1.57,0,0,0,147.23,23.82Z" transform="translate(-2.65 -3.39)" />
	</g>
  <!--S-->
	<g fill="none" fill-rule="evenodd" stroke="currentColor" stroke-width="1" class="letter letter-13">
		<path class="letter__layer color-13" d="M158.78,26.89a4.68,4.68,0,0,1-1.15-.69,2.88,2.88,0,0,1-.71-.72.67.67,0,0,1,.1-.4c.06-.07.25-.1.56-.09s.81.05,1.52.14q.38,0,1-.06a8.15,8.15,0,0,0,1.07-.2c.33-.08.52-.19.56-.32s.13,0,.06-.11l-.22-.24a.5.5,0,0,1-.29-.11A.53.53,0,0,0,161,24c0-.11-.11-.23-.31-.37a3.43,3.43,0,0,0-.62-.34c-.47-.38-.88-.73-1.22-1s-.47-.51-.38-.62v-.16c-.15,0-.32-.21-.5-.64a3,3,0,0,1-.27-1.15,2.88,2.88,0,0,1,.22-1,8.75,8.75,0,0,1,.61-1.23,5.53,5.53,0,0,1,.8-1.06,14.14,14.14,0,0,1,1.44-1.16c.58-.42,1.15-.79,1.71-1.12a6.58,6.58,0,0,1,1.43-.66,2.92,2.92,0,0,1,1.07-.22,1.72,1.72,0,0,1,.88.22,2.1,2.1,0,0,1,.59.46c.18.21.34.41.48.61a1.77,1.77,0,0,1,.27.53,6.65,6.65,0,0,1-.06.85,4.06,4.06,0,0,1-.18.81q-.1.36-.33.36a.17.17,0,0,0-.16.19A1.09,1.09,0,0,1,166,18a2.83,2.83,0,0,1-1.06.5.41.41,0,0,1-.54-.34.66.66,0,0,1-.13-.22.16.16,0,0,0-.16-.1.54.54,0,0,1-.19-.41.58.58,0,0,1,.19-.35c.11,0,.24-.13.41-.37a5.25,5.25,0,0,0,.47-.8,1.79,1.79,0,0,0,.21-.59c0-.13,0-.21-.05-.23a.83.83,0,0,0-.31,0c-.29.13-.66.3-1.08.51s-.83.42-1.2.63a3.45,3.45,0,0,0-.82.56,3.09,3.09,0,0,1-.16.27s-.07.05-.16.05-.07-.05-.21.11-.31.38-.51.65-.39.55-.57.82l-.41.59a1.11,1.11,0,0,0-.14.37,2.36,2.36,0,0,0-.08.56c-.08.26-.07.43,0,.53l.71.59c.74.55,1.33,1,1.76,1.38s.74.66,1,.89a1.53,1.53,0,0,1,.38.64c.38.64.5,1.13.35,1.47a2,2,0,0,1-1.09.9,3.57,3.57,0,0,1-1.05.26,14.7,14.7,0,0,1-1.5.11A8.29,8.29,0,0,1,158.78,26.89Z" transform="translate(-2.65 -3.39)" />
	</g>
</svg>
