<svg xmlns="http://www.w3.org/2000/svg" viewBox="0 0 316.4 405.04">
	<path d="M209.45,21c.27-.73,3-.73,2.68.06-16.53,45.84-32.3,92.13-50.74,137.26-.29.72-3,.7-2.69-.06C177.15,113.19,192.93,66.89,209.45,21Z" transform="translate(-1.82 -0.38)" style="fill:aqua" />
	<path d="M211.52,9.34a11.05,11.05,0,1,0,11,11.05h0a11.06,11.06,0,0,0-11-11Z" transform="translate(-1.82 -0.38)" style="fill:aqua" />
	<path d="M207.77,66.81c-16.42,32.35-32.33,65.07-50.06,96.7-.37.66,2.27.78,2.68.06,17.73-31.64,33.64-64.36,50-96.71.35-.69-2.3-.77-2.66,0Z" transform="translate(-1.82 -0.38)" style="fill:aqua" />
	<path d="M210.7,58.24a8.23,8.23,0,1,0,7.15,9.18h0a8.22,8.22,0,0,0-7.15-9.17Z" transform="translate(-1.82 -0.38)" style="fill:aqua" />
	<path d="M249.09,43.21c-29.77,38.58-59,77.81-90.39,115.1-.39.48,2.14.7,2.69.05,31.37-37.28,60.6-76.52,90.39-115.1.39-.5-2.17-.7-2.68,0Z" transform="translate(-1.82 -0.38)" style="fill:aqua" />
	<path d="M254.71,32.29a11.06,11.06,0,1,0,7.14,13.91,11,11,0,0,0-7.14-13.91Z" transform="translate(-1.82 -0.38)" style="fill:aqua" />
	<path d="M233.57,86.11c-25.52,25.76-50.71,52-77.29,76.71-.76.71,1.89.83,2.42.34,26.59-24.68,51.77-50.95,77.29-76.71.75-.75-1.9-.86-2.42-.34Z" transform="translate(-1.82 -0.38)" style="fill:aqua" />
	<path d="M239,78.6a8.23,8.23,0,1,0,4,10.92h0a8.22,8.22,0,0,0-4-10.91Z" transform="translate(-1.82 -0.38)" style="fill:aqua" />
	<path d="M279.18,74.92c-39.84,28.05-79.34,56.89-120.34,83.23-.79.52,1.81.74,2.42.36,41-26.35,80.5-55.2,120.35-83.26.79-.55-1.84-.77-2.43-.33Z" transform="translate(-1.82 -0.38)" style="fill:aqua" />
	<path d="M287.73,65.88a11.05,11.05,0,1,0,2.7,15.41,11.05,11.05,0,0,0-2.7-15.41Z" transform="translate(-1.82 -0.38)" style="fill:aqua" />
	<path d="M251.74,111.28c-32,17.06-63.84,34.73-96.52,50.44-1.29.62,1.39.91,2,.61,32.7-15.73,64.51-33.4,96.52-50.45,1.26-.67-1.4-.94-2-.6Z" transform="translate(-1.82 -0.38)" style="fill:aqua" />
	<path d="M259,105.47a8.22,8.22,0,1,0,.57,11.62h0a8.22,8.22,0,0,0-.59-11.61Z" transform="translate(-1.82 -0.38)" style="fill:aqua" />
	<path d="M299.2,114.94c-46.46,14.7-92.84,30.24-139.88,43-1.72.48.68,1,1.47.84,47-12.73,93.42-28.28,139.88-43C302.37,115.23,300,114.69,299.2,114.94Z" transform="translate(-1.82 -0.38)" style="fill:aqua" />
	<path d="M309.7,108.81a11.05,11.05,0,1,0-2.09,15.5,11.06,11.06,0,0,0,2.09-15.5Z" transform="translate(-1.82 -0.38)" style="fill:aqua" />
	<path d="M262.12,141.28c-35.54,6.58-71.09,13.78-106.87,18.85-1.61.25-1.53,1.34.09,1.12,36-5.13,71.82-12.36,107.61-19,1.85-.33.33-1.19-.83-1Z" transform="translate(-1.82 -0.38)" style="fill:aqua" />
	<path d="M270.34,137.84a8.23,8.23,0,1,0-2.95,11.26,8.23,8.23,0,0,0,2.95-11.26Z" transform="translate(-1.82 -0.38)" style="fill:aqua" />
	<path d="M306.62,162.74c-48.72-1.26-97.63-1.68-146.26-5-1.19-.09-2.5,1-.62,1.12,48.62,3.3,97.53,3.72,146.24,5,1.19,0,2.52-1.08.64-1.12Z" transform="translate(-1.82 -0.38)" style="fill:aqua" />
	<path d="M317.66,160.3a11.06,11.06,0,1,0-7,14h0a11,11,0,0,0,7-13.95Z" transform="translate(-1.82 -0.38)" style="fill:aqua" />
	<path d="M263,175.55c-35.86-5.39-71.94-10.19-107.54-17.08-.85-.16-3.06.74-1.31,1.08,35.61,6.88,71.69,11.68,107.54,17.08C262.5,176.74,264.74,175.82,263,175.55Z" transform="translate(-1.82 -0.38)" style="fill:aqua" />
	<path d="M271,174.92a8.22,8.22,0,1,0-6.47,9.66h0a8.21,8.21,0,0,0,6.46-9.66Z" transform="translate(-1.82 -0.38)" style="fill:aqua" />
	<path d="M296.16,214.53c-45.08-18.49-90.67-36.23-135-56.6-.66-.3-3.2.38-2.32.79,44.27,20.33,89.86,38.1,135,56.57.67.27,3.2-.41,2.32-.77Z" transform="translate(-1.82 -0.38)" style="fill:aqua" />
	<path d="M306.68,216.14a11.05,11.05,0,1,0-11.52,10.57h0a11,11,0,0,0,11.52-10.54Z" transform="translate(-1.82 -0.38)" style="fill:aqua" />
	<path d="M250.51,210.86c-31.59-17.76-63.63-35.07-94.48-54.14-.62-.4-3.2.23-2.31.78,30.85,19.05,62.86,36.37,94.47,54.13.64.37,3.2-.27,2.32-.77Z" transform="translate(-1.82 -0.38)" style="fill:aqua" />
	<path d="M257.87,213.23A8.23,8.23,0,1,0,248.4,220h0a8.21,8.21,0,0,0,9.47-6.74Z" transform="translate(-1.82 -0.38)" style="fill:aqua" />
	<path d="M272.46,253.29c-37.26-31.4-75.19-62.27-111.1-95.22-.61-.57-3.11.08-2.63.51,35.91,33,73.85,63.85,111.11,95.24.65.54,3.1-.13,2.62-.53Z" transform="translate(-1.82 -0.38)" style="fill:aqua" />
	<path d="M281.89,258.31a11,11,0,1,0-14.2,6.54,11.05,11.05,0,0,0,14.2-6.54l0,0Z" transform="translate(-1.82 -0.38)" style="fill:aqua" />
	<path d="M230.13,235.82c-24.63-26.63-49.8-52.9-73.32-80.5-.53-.64-3.1,0-2.62.51,23.51,27.63,48.69,53.91,73.32,80.51C228.07,237,230.62,236.34,230.13,235.82Z" transform="translate(-1.82 -0.38)" style="fill:aqua" />
	<path d="M236.33,240.57a8.23,8.23,0,1,0-11.09,3.53h0a8.22,8.22,0,0,0,11.08-3.53Z" transform="translate(-1.82 -0.38)" style="fill:aqua" />
	<path d="M239.37,281.86c-26.32-41-53.44-81.7-78-123.8-.39-.68-3-.2-2.62.52,24.57,42.09,51.68,82.81,78,123.82.42.66,3.06.16,2.62-.55Z" transform="translate(-1.82 -0.38)" style="fill:aqua" />
	<path d="M246.92,289.84a11.05,11.05,0,1,0-15.49,2.05h0a11,11,0,0,0,15.45-2l0,0Z" transform="translate(-1.82 -0.38)" style="fill:aqua" />
	<path d="M204.09,252.66c-15.65-32.65-31.91-65.15-46.2-98.43-.35-.85-3-.3-2.75.24,14.33,33.38,30.63,66,46.33,98.72.32.68,3,.27,2.63-.53Z" transform="translate(-1.82 -0.38)" style="fill:aqua" />
	<path d="M208.62,259.44a8.23,8.23,0,1,0-11.64.09,8.23,8.23,0,0,0,11.64-.09Z" transform="translate(-1.82 -0.38)" style="fill:aqua" />
	<path d="M198.36,299.8c-12.69-47-26.25-94.05-36.93-141.6-.2-.82-2.92-.45-2.75.25C169.36,206,182.94,253,195.6,300.05c.24.85,2.94.41,2.76-.25Z" transform="translate(-1.82 -0.38)" style="fill:aqua" />
	<path d="M203.11,310a11.06,11.06,0,1,0-15.4-2.75,11.06,11.06,0,0,0,15.4,2.75Z" transform="translate(-1.82 -0.38)" style="fill:aqua" />
	<path d="M173.57,261.31c-5.07-35.91-10.75-71.87-14.31-107.95-.09-.79-2.83-.55-2.75.24,3.56,36.09,9.24,72,14.3,108,.12.8,2.86.5,2.76-.25Z" transform="translate(-1.82 -0.38)" style="fill:aqua" />
	<path d="M175.79,269.39A8.22,8.22,0,1,0,164.67,266a8.22,8.22,0,0,0,11.12,3.42Z" transform="translate(-1.82 -0.38)" style="fill:aqua" />
	<path d="M150.18,304.11c3.34-48.62,5.86-97.47,11.25-145.9.07-.67-2.65-.63-2.75.25-5.39,48.43-7.91,97.29-11.24,145.9-.05.7,2.69.61,2.74-.25Z" transform="translate(-1.82 -0.38)" style="fill:aqua" />
	<path d="M151.33,315.71a11.06,11.06,0,1,0-13.66-7.61h0a11.08,11.08,0,0,0,13.66,7.6Z" transform="translate(-1.82 -0.38)" style="fill:aqua" />
	<path d="M139.28,259.62C146.22,224,152.55,188.2,161,152.92c.13-.57-2.55-.65-2.76.25-8.39,35.27-14.73,71.11-21.66,106.7-.11.6,2.57.65,2.74-.24Z" transform="translate(-1.82 -0.38)" style="fill:aqua" />
	<path d="M138.72,268.47a8.23,8.23,0,1,0-9.4-6.88,8.22,8.22,0,0,0,9.4,6.88Z" transform="translate(-1.82 -0.38)" style="fill:aqua" />
	<path d="M112.35,292.29c16-46.05,31.16-92.54,49-137.88.3-.78-2.4-.78-2.68-.06-17.86,45.35-33.08,91.83-49,137.89-.27.8,2.42.77,2.68.05Z" transform="translate(-1.82 -0.38)" style="fill:aqua" />
	<path d="M110.43,304a11.06,11.06,0,1,0-11.19-10.92h0A11.08,11.08,0,0,0,110.43,304Z" transform="translate(-1.82 -0.38)" style="fill:aqua" />
	<path d="M72.43,274.57c29.3-38.95,58-78.53,88.95-116.21.4-.48-2.14-.7-2.68-.05C127.78,196,99,235.57,69.75,274.51c-.38.53,2.18.72,2.68.06Z" transform="translate(-1.82 -0.38)" style="fill:aqua" />
	<path d="M67,285.54a11.06,11.06,0,1,0-7.31-13.83A11.07,11.07,0,0,0,67,285.54h0Z" transform="translate(-1.82 -0.38)" style="fill:aqua" />
	<path d="M87.42,231.47c25.21-26.06,50.05-52.65,76.33-77.66.76-.72-1.89-.86-2.42-.34-26.28,25-51.13,51.6-76.33,77.66-.75.78,1.9.87,2.42.34Z" transform="translate(-1.82 -0.38)" style="fill:aqua" />
	<path d="M82.14,239A8.22,8.22,0,1,0,78,228.16v0A8.21,8.21,0,0,0,82.13,239h0Z" transform="translate(-1.82 -0.38)" style="fill:aqua" />
	<path d="M42,243.23c39.48-28.53,78.63-57.87,119.3-84.72.8-.52-1.82-.75-2.43-.36C118.16,185,79,214.35,39.52,242.89c-.79.58,1.83.78,2.43.34Z" transform="translate(-1.82 -0.38)" style="fill:aqua" />
	<path d="M33.53,252.35A11.06,11.06,0,1,0,30.63,237a11,11,0,0,0,2.9,15.37Z" transform="translate(-1.82 -0.38)" style="fill:aqua" />
	<path d="M69,206.53c31.78-17.45,63.38-35.53,95.87-51.64,1.28-.64-1.38-.92-2-.6-32.48,16.11-64.09,34.18-95.87,51.64C65.67,206.62,68.34,206.86,69,206.53Z" transform="translate(-1.82 -0.38)" style="fill:aqua" />
	<path d="M61.76,212.43a8.24,8.24,0,1,0-.71-11.62h0a8.19,8.19,0,0,0,.69,11.57l0,0Z" transform="translate(-1.82 -0.38)" style="fill:aqua" />
	<path d="M21.44,203.46c46.27-15.27,92.46-31.41,139.34-44.71,1.72-.49-.7-1.06-1.47-.84C112.41,171.23,66.24,187.37,20,202.64c-1.7.55.68,1.07,1.47.82Z" transform="translate(-1.82 -0.38)" style="fill:aqua" />
	<path d="M11,209.72a11.06,11.06,0,1,0,1.89-15.53h0A11.08,11.08,0,0,0,11,209.72Z" transform="translate(-1.82 -0.38)" style="fill:aqua" />
	<path d="M58.18,176.64c35.59-7,71.17-14.69,107-20.24,1.87-.29.33-1.18-.81-1-35.84,5.55-71.43,13.22-107,20.26-1.85.35-.34,1.23.82,1Z" transform="translate(-1.82 -0.38)" style="fill:aqua" />
	<path d="M50,180.19a8.23,8.23,0,1,0,2.8-11.29h0A8.21,8.21,0,0,0,50,180.18Z" transform="translate(-1.82 -0.38)" style="fill:aqua" />
	<path d="M13.43,155.75c48.72.64,97.64.44,146.3,3.14,1.19.07,2.51-1,.63-1.12-48.67-2.7-97.57-2.5-146.3-3.16-1.18,0-2.52,1.11-.64,1.14Z" transform="translate(-1.82 -0.38)" style="fill:aqua" />
	<path d="M2.43,158.33a11.05,11.05,0,1,0,6.83-14.06h0a11.06,11.06,0,0,0-6.83,14.06Z" transform="translate(-1.82 -0.38)" style="fill:aqua" />
	<path d="M56.9,142.37c35.93,4.95,72,9.3,107.75,15.74.84.15,3.06-.75,1.3-1.07-35.69-6.44-71.84-10.79-107.74-15.74-.84-.11-3.08.83-1.31,1.07Z" transform="translate(-1.82 -0.38)" style="fill:aqua" />
	<path d="M48.9,143.12a8.23,8.23,0,1,0,6.35-9.75h0a8.21,8.21,0,0,0-6.36,9.71v0Z" transform="translate(-1.82 -0.38)" style="fill:aqua" />
	<path d="M23.45,103.92c45.25,17.86,91,35,135.44,54.8.65.28,3.18-.4,2.31-.79-44.61-19.82-90.48-37-135.88-55-.66-.26-3.23.42-1.87,1Z" transform="translate(-1.82 -0.38)" style="fill:aqua" />
	<path d="M12.69,102.36A11.06,11.06,0,1,0,24.08,91.64h0a11.06,11.06,0,0,0-11.38,10.72Z" transform="translate(-1.82 -0.38)" style="fill:aqua" />
	<path d="M68.92,106.91c31.83,17.37,64.06,34.28,95.14,53,.63.38,3.21-.24,2.32-.77-31.07-18.69-63.31-35.57-95.13-53-.64-.36-3.21.28-2.33.77Z" transform="translate(-1.82 -0.38)" style="fill:aqua" />
	<path d="M61.54,104.65A8.23,8.23,0,1,0,71,97.8h0a8.23,8.23,0,0,0-9.38,6.86Z" transform="translate(-1.82 -0.38)" style="fill:aqua" />
	<path d="M46.44,64.76c37.66,30.93,76,61.33,112.29,93.82.64.58,3.1-.09,2.62-.51C125,125.56,86.73,95.16,49.08,64.22c-.66-.54-3.09.16-2.64.54Z" transform="translate(-1.82 -0.38)" style="fill:aqua" />
	<path d="M36.94,59.87a11.06,11.06,0,1,0,14.13-6.7,11.05,11.05,0,0,0-14.13,6.7Z" transform="translate(-1.82 -0.38)" style="fill:aqua" />
	<path d="M89,81.7c25,26.3,50.45,52.27,74.3,79.58.54.63,3.12,0,2.63-.52-23.85-27.32-49.35-53.29-74.31-79.59-.58-.61-3.11,0-2.62.53Z" transform="translate(-1.82 -0.38)" style="fill:aqua" />
	<path d="M82.74,77.05a8.2,8.2,0,1,0,0-.06l0,.06Z" transform="translate(-1.82 -0.38)" style="fill:aqua" />
	<path d="M79.18,35.77c26.84,40.68,54.48,81,79.55,122.81.41.69,3.06.2,2.63-.51-25.09-41.79-52.71-82.16-79.54-122.84C81.38,34.58,78.74,35.09,79.18,35.77Z" transform="translate(-1.82 -0.38)" style="fill:aqua" />
	<path d="M71.53,27.9A11.06,11.06,0,1,0,87,25.67,11.07,11.07,0,0,0,71.53,27.9v0Z" transform="translate(-1.82 -0.38)" style="fill:aqua" />
	<path d="M114.83,64.52c16.07,32.5,32.76,64.85,47.48,98,.3.64,3,.27,2.63-.55-14.73-33.13-31.41-65.49-47.48-98-.33-.68-3-.27-2.64.51Z" transform="translate(-1.82 -0.38)" style="fill:aqua" />
	<path d="M110.21,57.82a8.23,8.23,0,1,0,11.64-.22h0A8.24,8.24,0,0,0,110.21,57.82Z" transform="translate(-1.82 -0.38)" style="fill:aqua" />
	<path d="M120,17.33c13.27,46.89,27.42,93.71,38.71,141.12.2.84,2.91.44,2.75-.25C150.14,110.79,136,64,122.73,17.08c-.24-.85-2.94-.41-2.76.25Z" transform="translate(-1.82 -0.38)" style="fill:aqua" />
	<path d="M115.1,7.23A11.06,11.06,0,1,0,130.53,9.8h0A11.08,11.08,0,0,0,115.1,7.24Z" transform="translate(-1.82 -0.38)" style="fill:aqua" />
	<path d="M145.25,55.51c5.5,35.85,11.63,71.71,15.64,107.76.1.8,2.83.54,2.75-.25C159.63,127,153.51,91.11,148,55.27c-.12-.83-2.87-.5-2.75.24Z" transform="translate(-1.82 -0.38)" style="fill:aqua" />
	<path d="M142.92,47.46a8.23,8.23,0,1,0,11.16,3.3h0a8.21,8.21,0,0,0-11.14-3.29h0Z" transform="translate(-1.82 -0.38)" style="fill:aqua" />
	<path d="M168.1,12.42c-2.74,48.65-4.64,97.52-9.42,146-.08.68,2.66.62,2.75-.25,4.77-48.5,6.68-97.39,9.42-146C170.88,11.47,168.13,11.56,168.1,12.42Z" transform="translate(-1.82 -0.38)" style="fill:aqua" />
	<path d="M166.8.84a11.06,11.06,0,1,0,13.76,7.43h0A11.08,11.08,0,0,0,166.8.84Z" transform="translate(-1.82 -0.38)" style="fill:aqua" />
	<path d="M179.54,56.76c-6.5,35.68-12.38,71.6-20.34,107-.13.58,2.55.66,2.76-.24,7.94-35.39,13.84-71.3,20.33-107,.11-.6-2.6-.63-2.75.25Z" transform="translate(-1.82 -0.38)" style="fill:aqua" />
	<path d="M180,47.94a8.23,8.23,0,1,0,9.49,6.75A8.23,8.23,0,0,0,180,47.94Z" transform="translate(-1.82 -0.38)" style="fill:aqua" />
	<path d="M160.67,145.79a11.79,11.79,0,1,0,11.79,11.79h0a11.8,11.8,0,0,0-11.78-11.79Z" transform="translate(-1.82 -0.38)" style="fill:aqua" />
	<path d="M153.54,161C105.62,234.19,59.79,314,40.35,400.24c-1.17,5.2,6.81,7.42,8,2.2C67.63,316.9,113.12,237.83,160.68,165.2c2.95-4.49-4.23-8.63-7.14-4.2Z" transform="translate(-1.82 -0.38)" style="fill:aqua" />
</svg>
