<?xml version="1.0" encoding="utf-8"?>
<!-- Generator: Adobe Illustrator 25.4.1, SVG Export Plug-In . SVG Version: 6.00 Build 0) -->
<svg version="1.1" id="Camada_1" xmlns="http://www.w3.org/2000/svg" xmlns:xlink="http://www.w3.org/1999/xlink" x="0px" y="0px" viewBox="0 0 229.7 295.6" style="enable-background:new 0 0 229.7 295.6;" xml:space="preserve">
	<style type="text/css">
		.st0{fill:#0000FF;}
	</style>
	<path class="st0" d="M160.9,12.3c0,2.9-2.3,5.2-5.2,5.2c-0.5,0-1.1-0.1-1.6-0.2c-12,33.6-23.6,67.4-37.1,100.4c-0.1,0.3-1.1,0.3-1,0
	c13.5-33.2,25.2-67.1,37.2-100.8c-1.6-0.9-2.8-2.6-2.8-4.6c0-2.9,2.3-5.2,5.2-5.2c1.4,0,2.7,0.6,3.7,1.5S160.9,10.9,160.9,12.3z" />
	<path class="st0" d="M189.5,30.5c0,1.8-1.4,3.2-3.2,3.2c-0.8,0-1.5-0.3-2.1-0.8c-19.9,24.5-39.5,49.3-60.1,73.1
	c-1.3,1.5-2.7,3.1-4,4.6c-1.8,2-3.6,4.1-5.4,6.1c-0.2,0.2-1.2,0.2-0.9-0.1c3.1-3.5,6.2-7,9.2-10.6c1.4-1.6,2.7-3.2,4.1-4.8
	c19.3-22.7,37.8-46,56.5-69c-0.4-0.5-0.6-1.1-0.6-1.8c0-1.8,1.4-3.2,3.2-3.2c0.9,0,1.7,0.4,2.2,0.9
	C189.1,28.8,189.5,29.6,189.5,30.5z" />
	<path class="st0" d="M214.1,64.9c0,2.2-1.8,3.9-3.9,3.9c-1.1,0-2.1-0.5-2.8-1.2c-30.7,16.7-61.3,33.9-92.7,49.2
	c-0.3,0.1-1.3,0-0.8-0.2c31.5-15.4,62.3-32.7,93.1-49.4c-0.5-0.6-0.7-1.4-0.7-2.3c0-2.2,1.8-3.9,3.9-3.9c1.1,0,2,0.4,2.8,1.1
	C213.7,62.9,214.1,63.8,214.1,64.9z" />
	<path class="st0" d="M229.7,105.4L229.7,105.4c0,2.4-1.9,4.2-4.2,4.2c-2.2,0-4-1.7-4.1-3.9c-35.1,4.1-70.2,8.8-105.5,11.5
	c-0.6,0.1-0.6-0.4,0-0.4c35.2-2.7,70.4-7.3,105.5-11.4c0.1-2.3,1.9-4.1,4.2-4.1C227.8,101.3,229.7,103.1,229.7,105.4z" />
	<path class="st0" d="M225.8,142.5L225.8,142.5c0,2-1.6,3.6-3.6,3.6s-3.6-1.6-3.6-3.6c0-0.1,0-0.3,0-0.4
	c-34.6-8.4-69.4-16.3-103.6-26.3c-0.5-0.2,0.4-0.5,0.7-0.4c34,9.8,68.6,17.8,103,26.1c0.4-1.5,1.8-2.6,3.5-2.6c0,0,0,0,0,0
	C224.2,138.9,225.8,140.5,225.8,142.5z" />
	<path class="st0" d="M111.7,119C89.2,90.6,64.9,63.4,41.2,35.9c-0.7,0.3-1.6,0.4-2.5,0.1c-0.9-0.3-1.5-1-1.8-1.8
	c-1-2.8,1.8-5.3,4.6-3.9c0.9,0.5,1.5,1.5,1.5,2.6v0.2c0,0.9-0.4,1.8-1.1,2.3c23.8,27.6,48.2,54.8,70.8,83.4
	C112.9,119,111.9,119.2,111.7,119z" />
	<path class="st0" d="M115.2,118.8c0.1,0.2-0.9,0.4-1,0.1C103.9,84.5,88.1,51.9,76,18c-0.4,0.1-0.7,0.2-1.1,0.2c-2,0-3.6-1.6-3.6-3.6
	s1.6-3.6,3.6-3.6c0,0,0,0,0,0c2,0,3.6,1.6,3.6,3.6v0c0,1.2-0.6,2.3-1.6,3C89,51.5,104.9,84.3,115.2,118.8z" />
	<path class="st0" d="M166.8,44.1c0,2.5-2,4.5-4.5,4.5c-0.9,0-1.8-0.3-2.5-0.7c-10.9,17.9-21.5,35.8-32.8,53.5
	c-1.4,1.6-2.7,3.2-4.1,4.8c12.5-19.4,24.2-39.1,36.2-58.8c-0.8-0.8-1.4-2-1.4-3.2c0-2.5,2-4.5,4.5-4.5c1.2,0,2.4,0.5,3.2,1.3
	C166.3,41.7,166.8,42.9,166.8,44.1z" />
	<path class="st0" d="M123,106.1c1.4-1.6,2.7-3.2,4.1-4.8c-1,1.6-2,3.1-3,4.7c-2.5,3.9-5.1,7.9-7.7,11.8c-0.2,0.3-1.1,0.2-1,0
	c1.6-2.4,3.1-4.7,4.7-7.1C121.1,109.2,122.1,107.7,123,106.1z" />
	<path class="st0" d="M195.3,153.5c0,2.3-1.9,4.2-4.2,4.2c-2.3,0-4.2-1.9-4.2-4.2c0-0.8,0.2-1.5,0.6-2.1
	c-24.3-11.4-48.8-22.6-72.6-35.2c-0.3-0.2,0.7-0.4,0.9-0.3c23.6,12.4,48,23.5,72.1,34.9c0.8-0.9,1.9-1.5,3.2-1.5
	c1.2,0,2.2,0.5,3,1.2S195.3,152.3,195.3,153.5z" />
	<path class="st0" d="M111.9,118.3C99.3,93.5,85.4,69.3,71.8,45c-0.6,0.4-1.3,0.5-2.1,0.3c-0.9-0.2-1.6-0.9-1.8-1.8
	c-0.5-1.7,0.8-3.3,2.5-3.3c0,0,0,0,0,0c1.4,0,2.6,1.1,2.6,2.6v0c0,0.5-0.2,1.1-0.5,1.5c13.6,24.5,27.7,48.8,40.4,73.8
	C113.1,118.4,112,118.6,111.9,118.3z" />
	<path class="st0" d="M112,117.1c-34.2,7.5-68,17-101.9,26c-0.9-1.4-2.5-2.3-4.3-2.3c-2.9,0-5.2,2.3-5.2,5.2s2.3,5.2,5.2,5.2
	s5.2-2.3,5.2-5.2c0-0.9-0.3-1.8-0.7-2.5c33.9-9,67.7-18.5,102-26C113,117.3,112.4,117,112,117.1z" />
	<path class="st0" d="M101.8,37.5c1.5-0.5,2.6-2,2.6-3.7v-0.1c0-2.1-1.8-3.8-3.9-3.8c-2.2,0-3.9,1.7-3.9,3.9c0,2.2,1.7,3.9,3.9,3.9
	c0.1,0,0.2,0,0.3,0c3.9,27,10.7,53.6,13,80.9c0,0.3,1.1,0.2,1-0.1C112.5,91.3,105.7,64.6,101.8,37.5z" />
	<path class="st0" d="M137.6,224.6c-0.2,0-0.3,0-0.5,0c-7.6-35.2-15.7-70.3-21.8-105.8c-0.1-0.3-1.1-0.2-1,0.1
	c6.1,35.6,14.3,70.7,21.9,106c-1.4,0.6-2.5,2-2.5,3.6v0c0,2.2,1.7,3.9,3.9,3.9c2.2,0,3.9-1.7,3.9-3.9
	C141.5,226.3,139.8,224.6,137.6,224.6z" />
	<path class="st0" d="M205.7,174.7c-1.4,0-2.7,0.7-3.5,1.7c-28.8-20-57.8-39.8-85.7-61.1c-0.2-0.2-1.2,0-0.9,0.3
	c28,21.4,57.2,41.2,86.2,61.4c-0.4,0.6-0.6,1.4-0.6,2.2c0,2.5,2,4.5,4.5,4.5s4.5-2,4.5-4.5S208.2,174.7,205.7,174.7z" />
	<path class="st0" d="M112.9,118c-20.3-17.5-41.5-33.9-62.5-50.6c0.5-0.7,0.8-1.6,0.8-2.5c0,0,0,0,0,0c0-2.5-2-4.5-4.5-4.5
	c-2.5,0-4.5,2-4.5,4.5s2,4.5,4.5,4.5c1.3,0,2.4-0.5,3.2-1.4c20.8,16.5,41.9,32.8,62,50.2C112.1,118.4,113.1,118.2,112.9,118z" />
	<path class="st0" d="M115.1,118.7c-19,20.1-37,41.3-55.2,62.1c-0.8-0.6-1.8-1-2.8-1c-2.5,0-4.5,2-4.5,4.5c0,2.5,2,4.5,4.5,4.5
	c2.5,0,4.5-2,4.5-4.5v0c0-1.1-0.4-2.1-1.1-2.9c18.3-21,36.3-42.3,55.5-62.6C116.3,118.5,115.3,118.5,115.1,118.7z" />
	<path class="st0" d="M97.7,198.8c-0.1-0.8-0.5-1.5-1.2-2c5.8-27.1,11.2-54.4,18.3-81.2c0.1-0.3-0.9-0.2-1,0.1
	c-6.9,26.6-12.4,53.7-18.1,80.6c-2.8-0.9-5.1,1.9-3.8,4.5c0.4,0.8,1.2,1.4,2.1,1.6c2.3,0.5,4.1-1.4,3.9-3.5L97.7,198.8z" />
	<path class="st0" d="M100.4,224c5.1-35.3,9.7-70.7,16.3-105.7c0-0.2-1-0.2-1,0.1c-6.6,35-11.2,70.4-16.3,105.7c-2.2,0.3-4,2.1-4,4.4
	c0,2.5,2,4.5,4.5,4.5s4.5-2,4.5-4.5v-0.2C104.4,226.1,102.6,224.2,100.4,224z" />
	<path class="st0" d="M172.7,174c-0.7,0-1.4,0.1-2.1,0.4c-18.3-19.3-36.9-38.4-54.4-58.4c-0.2-0.2-1.2,0-1,0.2
	c17.5,20.1,36.2,39.3,54.6,58.6c-1.4,0.9-2.3,2.5-2.4,4.3c0,2.9,2.3,5.2,5.1,5.2c2.9,0,5.2-2.3,5.2-5.1v-0.1
	C177.8,176.3,175.5,174,172.7,174z" />
	<path class="st0" d="M115,200.9c-0.3-27.5-1-54.9-0.1-82.4c0-0.3-1-0.2-1,0.1c-0.9,27.3-0.2,54.7,0.1,82c-0.2,0-0.3,0-0.5,0
	c-2.2,0-3.9,1.7-3.9,3.9c0,2.2,1.7,3.9,3.9,3.9h0.1c0,0,0,0,0,0c2.1,0,3.8-1.8,3.8-3.9C117.4,202.9,116.4,201.5,115,200.9z" />
	<path class="st0" d="M113.1,118.6c-34.5-4.9-69.3-7.8-104.1-11.2c0-0.1,0-0.2,0-0.3c0,0,0,0,0,0c0-2.5-2-4.5-4.5-4.5
	c-2.5,0-4.5,2-4.5,4.5s2,4.5,4.5,4.5c2.2,0,4.1-1.6,4.4-3.8c34.5,3.4,69.2,6.3,103.7,11.2C112.9,119,113.8,118.7,113.1,118.6z" />
	<path class="st0" d="M182.7,60.4c-1.6,0-2.9,1.3-2.9,2.9c0,0.2,0,0.3,0.1,0.5c-21.8,17.8-43.4,36-66,53c-0.3,0.2,0.7,0.3,0.9,0.1
	c22.3-16.8,43.7-34.7,65.3-52.4c0.5,1,1.5,1.7,2.6,1.7c1.6,0,2.9-1.3,2.9-2.9S184.3,60.4,182.7,60.4z" />
	<path class="st0" d="M112.8,116.7c-27.5,0.4-55,2.3-82.4,3.9c0-0.1,0-0.1,0-0.2c0-1.6-1.3-2.9-2.9-2.9s-2.9,1.3-2.9,2.9
	s1.3,2.9,2.9,2.9c1.4,0,2.6-1,2.8-2.3c27.4-1.6,54.8-3.5,82.3-3.9C113,117.1,113.6,116.7,112.8,116.7z" />
	<path class="st0" d="M115.9,118.8c-28.6,20.6-56.2,42.8-83.9,64.7c-0.8-1.1-2.1-1.7-3.5-1.7c-2.5,0-4.5,2-4.5,4.5
	c0,2.5,2,4.5,4.5,4.5s4.5-2,4.5-4.5v-0.2c0,0,0,0,0,0c0-0.8-0.2-1.5-0.6-2.1c27.9-22,55.6-44.3,84.4-65.1
	C117.1,118.7,116.1,118.6,115.9,118.8z" />
	<path class="st0" d="M175.5,207.7c-0.3,0-0.6,0.1-0.8,0.1c-19.7-30.6-39.9-61-58.2-92.4c-0.1-0.3-1.2-0.1-1,0.2
	c18.3,31.5,38.7,62,58.3,92.7c-0.7,0.5-1.2,1.4-1.2,2.3c0,1.6,1.3,2.9,2.9,2.9s2.9-1.3,2.9-2.9S177.1,207.7,175.5,207.7z" />
	<path class="st0" d="M63.2,211.9c17.5-31.2,34.7-62.6,53.6-93c0.1-0.2-0.9-0.3-1,0c-18.9,30.3-36,61.7-53.5,92.7c-0.1,0-0.2,0-0.3,0
	c-1.6,0-2.9,1.3-2.9,2.9s1.3,2.9,2.9,2.9s2.9-1.3,2.9-2.9C64.8,213.3,64.2,212.3,63.2,211.9z" />
	<path class="st0" d="M112.6,118.8C81.1,101.2,48.5,85.3,16.4,69c0.3-0.5,0.4-1,0.4-1.5v-0.1c0-1.7-1.4-3.1-3.1-3.1
	c-1.7,0-3.2,1.4-3.2,3.1c0,1.7,1.4,3.2,3.1,3.2c0.9,0,1.8-0.4,2.4-1c32.1,16.2,64.4,32,95.7,49.5C111.9,119.2,112.9,119,112.6,118.8
	z" />
	<path class="st0" d="M115.1,118.7c-25,11.2-49.4,23.8-73.8,36.1c-0.4-1.2-1.6-2.1-2.9-2.1c-1.7,0-3.2,1.4-3.2,3.1
	c0,1.7,1.4,3.2,3.1,3.2c1.7,0,3.2-1.4,3.2-3.1v-0.1c0-0.1,0-0.3,0-0.4c24.6-12.4,49.2-25.1,74.4-36.4
	C116.4,118.7,115.4,118.6,115.1,118.7z" />
	<path class="st0" d="M133.7,32.8c0,1.6-1.3,2.9-2.9,2.9c-0.4,0-0.7-0.1-1.1-0.2c-4.4,27.2-8.4,54.6-13.8,81.7c0,0.3-1,0.3-1,0.1
	c5.6-27.2,9.5-54.9,13.9-82.3c-0.6-0.5-0.9-1.3-0.9-2.1c0-1.6,1.3-2.9,2.9-2.9c0.8,0,1.5,0.3,2,0.9C133.3,31.3,133.7,32,133.7,32.8z
	" />
	<path class="st0" d="M116.3,117c0,0.3-1,0.4-1,0.1c0-36-2.2-72.1-3.7-108.1h0c0.3,0,0.7,0,1-0.1C114.1,44.8,116.2,81,116.3,117z" />
	<path class="st0" d="M111.4,5.5c0,1.2,0.1,2.3,0.2,3.5c-2.5,0-4.5-2-4.5-4.5c0-2.5,2-4.5,4.5-4.5c2.5,0,4.5,2,4.5,4.5c0,0,0,0,0,0
	c0,2.2-1.5,4-3.5,4.4c-0.1-1.2-0.1-2.3-0.2-3.5C112.4,5.1,111.4,5.2,111.4,5.5z" />
	<path class="st0" d="M112.6,8.9c-0.3,0.1-0.6,0.1-1,0.1h0c-0.1-1.2-0.1-2.3-0.2-3.5c0-0.3,1-0.4,1-0.1
	C112.5,6.6,112.5,7.7,112.6,8.9z" />
	<path class="st0" d="M112.6,8.9c-0.3,0.1-0.6,0.1-1,0.1h0c-0.1-1.2-0.1-2.3-0.2-3.5c0-0.3,1-0.4,1-0.1
	C112.5,6.6,112.5,7.7,112.6,8.9z" />
	<path class="st0" d="M196.3,89.5c-1.3,0-2.3,1-2.3,2.3c0,0.5,0.1,0.9,0.4,1.2c-26.7,8.1-53.2,16.7-80.3,23.6
	c-0.7,0.2-0.1,0.5,0.3,0.4c27-7,53.6-15.5,80.3-23.6c0.4,0.4,1,0.6,1.6,0.6c1.3,0,2.3-1,2.3-2.3C198.5,90.6,197.5,89.6,196.3,89.5z" />
	<path class="st0" d="M201.9,121.4c-1.8,0-3.2,1.4-3.2,3.2c0,0.1,0,0.2,0,0.3c-27.7-2.4-55.5-4.3-83-7.8c-0.3,0-1.2,0.3-0.5,0.4
	c27.7,3.6,55.8,5.5,83.6,7.9c0.4,1.4,1.6,2.4,3.1,2.4c1.8,0,3.2-1.4,3.2-3.2C205.1,122.8,203.7,121.4,201.9,121.4z" />
	<path class="st0" d="M145.4,192.2c-0.1,0-0.2,0-0.4,0c-9.8-25.2-19.9-50.5-28.6-76.2c-0.1-0.3-1.1-0.1-1,0.1
	c8.7,25.8,18.9,51,28.7,76.4c-1.1,0.5-1.9,1.6-1.9,2.9c0,0,0,0,0,0c0,1.8,1.4,3.2,3.2,3.2c1.8,0,3.2-1.4,3.2-3.2v-0.1
	C148.6,193.6,147.1,192.2,145.4,192.2z" />
	<path d="M122,114.9c0,3.6-2.9,6.5-6.5,6.5c-3.6,0-6.5-2.9-6.5-6.5s2.9-6.5,6.5-6.5l0,0l0,0C119.1,108.4,122,111.3,122,114.9
	L122,114.9z" />
	<path class="st0" d="M113.2,117.9c-25.6-9.1-51.7-16.7-77.7-24.8c0-0.2,0.1-0.4,0.1-0.6c0-2.3-1.9-4.2-4.2-4.2
	c-2.3,0-4.2,1.9-4.2,4.2c0,2.3,1.9,4.2,4.2,4.2c1.9,0,3.5-1.3,4-3.1c25.8,7.9,51.7,15.6,77.1,24.7
	C112.8,118.4,113.7,118.1,113.2,117.9z" />
	<path class="caule" d="M110.3,116.6c-15.1,28.9-25.6,60-31.3,92.1c-2.4,13-4.6,26-7.8,38.7c-4.2,16.2-10.1,31.9-17.7,46.8c-0.8,1.7,5.3,2,6.1,0.4
	c13.1-26.4,19.8-53.8,25-82.6c2.6-14.1,5.4-28.2,9.6-41.9c5.5-18.4,13.3-36.1,22.2-53.1C117.3,115.4,111.2,115,110.3,116.6z" />
	<circle cx="143.1" cy="110" r="4.2" />
	<circle cx="166.2" cy="90.3" r="2.6" />
	<circle cx="146.6" cy="91.7" r="2.6" />
	<circle cx="136.2" cy="64.3" r="4.2" />
	<circle cx="108.4" cy="78.6" r="3.3" />
	<circle cx="86.9" cy="70.3" r="4.2" />
	<circle cx="86.3" cy="96.5" r="3.6" />
	<circle cx="87.9" cy="115.3" r="2.8" />
	<circle cx="68.9" cy="127.8" r="3.6" />
	<circle cx="80.8" cy="157.2" r="3.6" />
	<circle cx="114.3" cy="138.8" r="3.6" />
	<circle cx="140.4" cy="154.7" r="4.7" />
	<circle cx="106.8" cy="177.3" r="2.8" />
	<circle cx="160.9" cy="122.5" r="4.2" />
	<circle cx="184.3" cy="110" r="3.2" />
</svg>
