<svg xmlns="http://www.w3.org/2000/svg" viewBox="0 0 311.02 401.42">
	<line x1="179.49" y1="56.5" x2="159.49" y2="153.5" style="fill:aqua;stroke:aqua;stroke-miterlimit:10;stroke-width:3px" />
	<circle cx="181.03" cy="52.03" r="9" style="fill:aqua" />
	<line x1="206.5" y1="67.49" x2="162.49" y2="148.5" style="fill:aqua;stroke:aqua;stroke-miterlimit:10;stroke-width:3px" />
	<circle cx="208.04" cy="63.02" r="9" style="fill:aqua" />
	<line x1="232.51" y1="86.49" x2="163.49" y2="151.5" style="fill:aqua;stroke:aqua;stroke-miterlimit:10;stroke-width:3px" />
	<circle cx="234.05" cy="82.02" r="9" style="fill:aqua" />
	<line x1="248.99" y1="109" x2="160.99" y2="154" style="fill:aqua;stroke:aqua;stroke-miterlimit:10;stroke-width:2px" />
	<circle cx="252.06" cy="107.03" r="9" style="fill:aqua" />
	<line x1="258.99" y1="138" x2="163.99" y2="154" style="fill:aqua;stroke:aqua;stroke-miterlimit:10;stroke-width:2px" />
	<circle cx="262.06" cy="138.03" r="9" style="fill:aqua" />
	<line x1="257.99" y1="173.01" x2="157.99" y2="155" style="fill:aqua;stroke:aqua;stroke-miterlimit:10;stroke-width:2px" />
	<circle cx="261.07" cy="173.04" r="9" style="fill:aqua" />
	<line x1="245.99" y1="205" x2="162.99" y2="156" style="fill:aqua;stroke:aqua;stroke-miterlimit:10;stroke-width:2px" />
	<circle cx="248.07" cy="208.05" r="9" style="fill:aqua" />
	<line x1="227.99" y1="232" x2="157.99" y2="155" style="fill:aqua;stroke:aqua;stroke-miterlimit:10;stroke-width:2px" />
	<circle cx="228.06" cy="232.06" r="9" style="fill:aqua" />
	<line x1="200.99" y1="249" x2="160.99" y2="159" style="fill:aqua;stroke:aqua;stroke-miterlimit:10;stroke-width:2px" />
	<circle cx="201.06" cy="249.07" r="9" style="fill:aqua" />
	<line x1="152.18" y1="56.58" x2="159.34" y2="145.25" style="fill:aqua;stroke:aqua;stroke-miterlimit:10;stroke-width:3px" />
	<circle cx="151.03" cy="52.02" r="9" style="fill:aqua" />
	<line x1="66.97" y1="202.05" x2="157.99" y2="152" style="fill:aqua;stroke:aqua;stroke-miterlimit:10;stroke-width:2px" />
	<circle cx="66.01" cy="202.07" r="9" style="fill:aqua" />
	<line x1="136.96" y1="256.04" x2="157.99" y2="152" style="fill:aqua;stroke:aqua;stroke-miterlimit:10;stroke-width:2px" />
	<circle cx="136.01" cy="256.06" r="9" style="fill:aqua" />
	<line x1="88.99" y1="224.06" x2="155.99" y2="156" style="fill:aqua;stroke:aqua;stroke-miterlimit:10;stroke-width:2px" />
	<circle cx="88.03" cy="224.08" r="9" style="fill:aqua" />
	<line x1="171.98" y1="257.06" x2="157.99" y2="155" style="fill:aqua;stroke:aqua;stroke-miterlimit:10;stroke-width:2px" />
	<circle cx="171.03" cy="257.08" r="9" style="fill:aqua" />
	<line x1="55.99" y1="172" x2="159.99" y2="153" style="fill:aqua;stroke:aqua;stroke-miterlimit:10;stroke-width:2px" />
	<circle cx="56.01" cy="171.05" r="9" style="fill:aqua" />
	<line x1="57.99" y1="138" x2="157.99" y2="152" style="fill:aqua;stroke:aqua;stroke-miterlimit:10;stroke-width:2px" />
	<circle cx="56.03" cy="138.02" r="9" style="fill:aqua" />
	<line x1="72.99" y1="105" x2="154.99" y2="150" style="fill:aqua;stroke:aqua;stroke-miterlimit:10;stroke-width:2px" />
	<circle cx="69.03" cy="103.02" r="9" style="fill:aqua" />
	<line x1="90.99" y1="79" x2="156.99" y2="147" style="fill:aqua;stroke:aqua;stroke-miterlimit:10;stroke-width:2px" />
	<circle cx="89.03" cy="77.02" r="9" style="fill:aqua" />
	<line x1="117.99" y1="61" x2="162.49" y2="155.5" style="fill:aqua;stroke:aqua;stroke-miterlimit:10;stroke-width:2px" />
	<circle cx="115.03" cy="59.02" r="9" style="fill:aqua" />
	<line x1="274.49" y1="75.5" x2="162.49" y2="153.5" style="fill:aqua;stroke:aqua;stroke-miterlimit:10;stroke-width:3px" />
	<circle cx="280.02" cy="71.01" r="12" style="fill:aqua" />
	<line x1="293.49" y1="116.5" x2="164.49" y2="153.5" style="fill:aqua;stroke:aqua;stroke-miterlimit:10;stroke-width:2px" />
	<circle cx="299.02" cy="112.01" r="12" style="fill:aqua" />
	<line x1="32.11" y1="106.64" x2="158.27" y2="152.41" style="fill:aqua;stroke:aqua;stroke-miterlimit:10;stroke-width:2px" />
	<circle cx="25" cy="107.03" r="12" style="fill:aqua" />
	<line x1="292.99" y1="211" x2="160.99" y2="154" style="fill:aqua;stroke:aqua;stroke-miterlimit:10;stroke-width:2px" />
	<circle cx="295.02" cy="212.02" r="12" style="fill:aqua" />
	<line x1="267.99" y1="249.01" x2="160.99" y2="154" style="fill:aqua;stroke:aqua;stroke-miterlimit:10;stroke-width:2px" />
	<circle cx="270.02" cy="250.02" r="12" style="fill:aqua" />
	<line x1="234.98" y1="277.01" x2="157.99" y2="155" style="fill:aqua;stroke:aqua;stroke-miterlimit:10;stroke-width:2px" />
	<circle cx="237.02" cy="278.03" r="12" style="fill:aqua" />
	<line x1="193.98" y1="296.01" x2="157.99" y2="155" style="fill:aqua;stroke:aqua;stroke-miterlimit:10;stroke-width:2px" />
	<circle cx="196.02" cy="297.03" r="12" style="fill:aqua" />
	<line x1="146.98" y1="300.02" x2="160.99" y2="154" style="fill:aqua;stroke:aqua;stroke-miterlimit:10;stroke-width:2px" />
	<circle cx="145.01" cy="301.03" r="12" style="fill:aqua" />
	<line x1="109.98" y1="288.02" x2="157.99" y2="155" style="fill:aqua;stroke:aqua;stroke-miterlimit:10;stroke-width:2px" />
	<circle cx="108.01" cy="289.03" r="12" style="fill:aqua" />
	<line x1="13.97" y1="151.01" x2="158.99" y2="154" style="fill:aqua;stroke:aqua;stroke-miterlimit:10;stroke-width:2px" />
	<circle cx="12" cy="152.03" r="12" style="fill:aqua" />
	<line x1="20.97" y1="198.01" x2="157.99" y2="154" style="fill:aqua;stroke:aqua;stroke-miterlimit:10;stroke-width:2px" />
	<circle cx="19" cy="199.03" r="12" style="fill:aqua" />
	<line x1="40.97" y1="240.01" x2="157.99" y2="154" style="fill:aqua;stroke:aqua;stroke-miterlimit:10;stroke-width:2px" />
	<circle cx="39" cy="241.03" r="12" style="fill:aqua" />
	<line x1="70.97" y1="270.01" x2="157.99" y2="155" style="fill:aqua;stroke:aqua;stroke-miterlimit:10;stroke-width:2px" />
	<circle cx="69" cy="271.03" r="12" style="fill:aqua" />
	<line x1="295.99" y1="157.01" x2="162.99" y2="153" style="fill:aqua;stroke:aqua;stroke-miterlimit:10;stroke-width:2px" />
	<circle cx="298.02" cy="158.02" r="12" style="fill:aqua" />
	<line x1="247.07" y1="40.37" x2="165.12" y2="149.28" style="fill:aqua;stroke:aqua;stroke-miterlimit:10;stroke-width:3px" />
	<circle cx="248.02" cy="38" r="12" style="fill:aqua" />
	<line x1="209.78" y1="19.54" x2="160.76" y2="146.72" style="fill:aqua;stroke:aqua;stroke-miterlimit:10;stroke-width:3px" />
	<circle cx="210.05" cy="17.01" r="12" style="fill:aqua" />
	<line x1="169.49" y1="14.5" x2="160.49" y2="150.5" style="fill:aqua;stroke:aqua;stroke-miterlimit:10;stroke-width:3px" />
	<circle cx="168.99" cy="12" r="12" style="fill:aqua" />
	<line x1="81.19" y1="33.56" x2="157.26" y2="146.65" style="fill:aqua;stroke:aqua;stroke-miterlimit:10;stroke-width:3px" />
	<circle cx="79.26" cy="31.89" r="12" style="fill:aqua" />
	<line x1="124.11" y1="24.13" x2="160.49" y2="154.5" style="fill:aqua;stroke:aqua;stroke-miterlimit:10;stroke-width:3px" />
	<circle cx="120.94" cy="17.86" r="12" style="fill:aqua" />
	<line x1="50.34" y1="69.99" x2="159.25" y2="150.37" style="fill:aqua;stroke:aqua;stroke-miterlimit:10;stroke-width:3px" />
	<circle cx="43.99" cy="67.01" r="12" style="fill:aqua" />
	<path d="M163.67,143.79a11.79,11.79,0,1,0,11.79,11.79h0a11.8,11.8,0,0,0-11.78-11.79Z" transform="translate(-4.01 -2)" style="fill:aqua" />
	<path d="M156.54,159C108.62,232.19,62.79,312,43.35,398.24c-1.17,5.2,6.81,7.42,8,2.2C70.63,314.9,116.12,235.83,163.68,163.2c2.95-4.49-4.23-8.63-7.14-4.2Z" transform="translate(-4.01 -2)" style="fill:aqua" />
</svg>
