<svg xmlns="http://www.w3.org/2000/svg" viewBox="0 0 240 240">
	<path class="headphone__headphone animate fade-in-infinite" d="M171.51,110.53a52.23,52.23,0,0,0-103.52,0,20.65,20.65,0,0,0-19.84,20.68v10.67A20.73,20.73,0,0,0,65,162.27V126.35h3.28v36.28c.19,0,.36.06.55.06h5.81V118.6h0c0-.19,0-.39,0-.6a45.13,45.13,0,1,1,90.26,0h0v.6h0v44.09h5.83c.19,0,.35-.05.54-.06V126.35h3.29v36a20.74,20.74,0,0,0,16.8-20.39V131.25A20.67,20.67,0,0,0,171.51,110.53Z" transform="translate(0 -0.24)"/>
	<circle class="headphone__circle-background" cx="119.88" cy="120.12" r="117.88" style="fill:none;stroke:currentColor;stroke-miterlimit:10;stroke-width:4px" />
	<circle class="headphone__circle-spinner" cx="119.88" cy="120.12" r="117.88" style="fill:none;stroke:currentColor;stroke-miterlimit:10;stroke-width:4px" />
</svg>
