<svg xmlns="http://www.w3.org/2000/svg" viewBox="0 0 196 196"><path d="M77.53,66.56l0-1.1,0,0-25,.53a.57.57,0,0,1-.57-.55.56.56,0,0,1,.54-.56h0l25,.53a0,0,0,0,1,0,0h0Z" style="fill:#fff"/><path d="M50,66.07a.61.61,0,1,1,.61-.61A.6.6,0,0,1,50,66.07Z" style="fill:#fff"/><path d="M47.34,66.11a.65.65,0,1,1,0-1.3.65.65,0,0,1,0,1.3Z" style="fill:#fff"/><path d="M44.72,66.16l-26.06.49a1.19,1.19,0,0,1-1.21-1.17,1.2,1.2,0,0,1,1.17-1.21h0l26.06.49a.7.7,0,0,1,.69.72A.7.7,0,0,1,44.72,66.16Z" style="fill:#fff"/><path d="M18.29,68.94a1.24,1.24,0,1,1,1.23-1.23A1.23,1.23,0,0,1,18.29,68.94Z" style="fill:#fff"/><circle cx="18.29" cy="70.32" r="1.29" style="fill:#fff"/><path d="M19.61,72.94c.05,4.13,0,8.27,0,12.41V97.77a1.31,1.31,0,0,1-.7,1.15l-1.09.58a1.31,1.31,0,0,1-1.22-2.32l1.09-.57L17,97.77V85.35c0-4.14-.06-8.28,0-12.41a1.31,1.31,0,0,1,1.33-1.31A1.33,1.33,0,0,1,19.61,72.94Z" style="fill:#fff"/><path d="M18.29,101.35a1.31,1.31,0,1,1,1.31-1.3A1.31,1.31,0,0,1,18.29,101.35Z" style="fill:#fff"/><path d="M18.29,104a1.31,1.31,0,1,1,1.31-1.31A1.31,1.31,0,0,1,18.29,104Z" style="fill:#fff"/><path d="M19.6,105.28v25.26l-1.31-1.31h.8a1.31,1.31,0,0,1,0,2.62h-.8A1.31,1.31,0,0,1,17,130.54V105.28a1.31,1.31,0,0,1,2.62,0Z" style="fill:#fff"/><path d="M21.7,131.85A1.31,1.31,0,1,1,23,130.54,1.31,1.31,0,0,1,21.7,131.85Z" style="fill:#fff"/><path d="M24.32,131.85a1.31,1.31,0,1,1,1.31-1.31A1.31,1.31,0,0,1,24.32,131.85Z" style="fill:#fff"/><path d="M26.94,129.23H53a1.31,1.31,0,0,1,0,2.62H26.94a1.31,1.31,0,1,1,0-2.62Z" style="fill:#fff"/><path d="M55.61,131.85a1.31,1.31,0,1,1,1.31-1.31A1.31,1.31,0,0,1,55.61,131.85Z" style="fill:#fff"/><path d="M58.23,131.85a1.31,1.31,0,1,1,1.31-1.31A1.31,1.31,0,0,1,58.23,131.85Z" style="fill:#fff"/><path d="M60.84,129.23H75a1.31,1.31,0,1,1,0,2.62H63a1.31,1.31,0,0,1,0-2.62H75v2.62H60.84a1.31,1.31,0,0,1,0-2.62Z" style="fill:#fff"/><path d="M60.39,131.85a1.31,1.31,0,1,1,1.3-1.31A1.31,1.31,0,0,1,60.39,131.85Z" style="fill:#fff"/><path d="M57.77,131.85a1.31,1.31,0,1,1,1.31-1.31A1.31,1.31,0,0,1,57.77,131.85Z" style="fill:#fff"/><path d="M55.15,131.85H29.09a1.31,1.31,0,0,1,0-2.62H55.15a1.31,1.31,0,1,1,0,2.62Z" style="fill:#fff"/><path d="M26.48,131.85a1.31,1.31,0,1,1,1.31-1.31A1.31,1.31,0,0,1,26.48,131.85Z" style="fill:#fff"/><path d="M23.86,131.85a1.31,1.31,0,1,1,1.31-1.31A1.31,1.31,0,0,1,23.86,131.85Z" style="fill:#fff"/><path d="M21.25,131.85H17v-2.62H38.82a1.31,1.31,0,0,1,0,2.62H17v-2.62h4.25a1.31,1.31,0,0,1,0,2.62Z" style="fill:#fff"/><path d="M41.44,131.85a1.31,1.31,0,1,1,1.31-1.31A1.31,1.31,0,0,1,41.44,131.85Z" style="fill:#fff"/><path d="M44.06,131.85a1.31,1.31,0,1,1,1.31-1.31A1.31,1.31,0,0,1,44.06,131.85Z" style="fill:#fff"/><path d="M46.67,129.23H72.74a1.31,1.31,0,0,1,0,2.62H46.67a1.31,1.31,0,0,1,0-2.62Z" style="fill:#fff"/><path d="M75.36,131.85a1.31,1.31,0,1,1,1.3-1.31A1.31,1.31,0,0,1,75.36,131.85Z" style="fill:#fff"/><path d="M77.53,131.4a1.31,1.31,0,1,1,1.31-1.31A1.31,1.31,0,0,1,77.53,131.4Z" style="fill:#fff"/><path d="M80.23,129.77l23.13,12a1.31,1.31,0,1,1-1.21,2.32L79,132.09a1.31,1.31,0,0,1-.56-1.76A1.32,1.32,0,0,1,80.23,129.77Z" style="fill:#fff"/><path d="M105.08,145.45a1.31,1.31,0,1,1,1.31-1.31A1.31,1.31,0,0,1,105.08,145.45Z" style="fill:#fff"/><path d="M107.4,146.65a1.31,1.31,0,1,1,1.31-1.31A1.31,1.31,0,0,1,107.4,146.65Z" style="fill:#fff"/><path d="M110.32,145.39l20.14,10.45L128.55,157v-3.37a1.31,1.31,0,1,1,2.62,0V157a1.31,1.31,0,0,1-1.31,1.31,1.33,1.33,0,0,1-.6-.15l-20.14-10.45a1.31,1.31,0,0,1,1.2-2.32Z" style="fill:#fff"/><path d="M129.86,152.32a1.31,1.31,0,1,1,1.31-1.31A1.31,1.31,0,0,1,129.86,152.32Z" style="fill:#fff"/><path d="M129.86,149.7a1.31,1.31,0,1,1,1.31-1.3A1.31,1.31,0,0,1,129.86,149.7Z" style="fill:#fff"/><path d="M128.55,145.78V119.72a1.31,1.31,0,0,1,2.62,0v26.06a1.31,1.31,0,1,1-2.62,0Z" style="fill:#fff"/><path d="M129.86,118.41a1.31,1.31,0,1,1,1.31-1.3A1.31,1.31,0,0,1,129.86,118.41Z" style="fill:#fff"/><path d="M129.86,115.8a1.31,1.31,0,1,1,1.31-1.31A1.31,1.31,0,0,1,129.86,115.8Z" style="fill:#fff"/><path d="M128.55,111.87V85.81a1.31,1.31,0,0,1,2.62,0v26.06a1.31,1.31,0,1,1-2.62,0Z" style="fill:#fff"/><path d="M129.86,84.51a1.31,1.31,0,1,1,1.31-1.31A1.31,1.31,0,0,1,129.86,84.51Z" style="fill:#fff"/><path d="M129.86,81.89a1.31,1.31,0,1,1,1.31-1.31A1.31,1.31,0,0,1,129.86,81.89Z" style="fill:#fff"/><path d="M128.55,78l0-26.06a1.34,1.34,0,1,1,2.67,0h0l0,26.06a1.31,1.31,0,0,1-2.62,0Z" style="fill:#fff"/><path d="M129.86,50.62a1.33,1.33,0,1,1,1.33-1.33A1.33,1.33,0,0,1,129.86,50.62Z" style="fill:#fff"/><circle cx="129.86" cy="46.67" r="1.3" style="fill:#fff"/><path d="M128.61,44.06,128.7,39l1.7,1-18.77,9.45a.77.77,0,0,1-.71-1.36L129.32,38a1.13,1.13,0,0,1,1.55.45A1.07,1.07,0,0,1,131,39v0l.1,5.06a1.25,1.25,0,0,1-2.5,0Z" style="fill:#fff"/><path d="M109,50.72a.72.72,0,1,1,.72-.71A.71.71,0,0,1,109,50.72Z" style="fill:#fff"/><circle cx="106.65" cy="51.23" r="0.67" style="fill:#fff"/><path d="M104.62,53,81.32,64.67a.1.1,0,0,1-.13,0,.09.09,0,0,1,0-.12L104,51.89a.64.64,0,0,1,.85.25.62.62,0,0,1-.24.84Z" style="fill:#fff"/><path d="M79,65.84a0,0,0,0,1,0,0s0,0,0,0a0,0,0,0,1,0,0S79,65.84,79,65.84Z" style="fill:#fff"/><circle cx="98" cy="98" r="97" style="fill:none;stroke:#fff;stroke-linecap:round;stroke-miterlimit:10;stroke-width:2px"/></svg>