<svg xmlns="http://www.w3.org/2000/svg" viewBox="0 0 196 196"><path d="M64.64,168.14c6.64-.18,13.28-.36,19.92-.49a.49.49,0,1,1,0,1h0Q74.6,168.44,64.64,168.14Z" style="fill:#fff"/><path d="M85.57,167.62l2,0a.56.56,0,0,1,0,1.12h0l-2,0a.52.52,0,0,1,0-1Z" style="fill:#fff"/><path d="M87,165.2l-.07-3a.7.7,0,0,1,1.39,0v0l-.07,3a.62.62,0,0,1-.64.62A.63.63,0,0,1,87,165.2Z" style="fill:#fff"/><path d="M86.88,159.2l-.22-10c-.09-3.32,0-6.64,0-10a1,1,0,0,1,2,0h0c0,3.32.06,6.64,0,10l-.22,10a.77.77,0,0,1-.78.75A.76.76,0,0,1,86.88,159.2Z" style="fill:#fff"/><path d="M86.64,138.28v-2a1,1,0,0,1,2,0v2a1,1,0,0,1-2,0Z" style="fill:#fff"/><path d="M86.64,133.28v-3a1,1,0,0,1,2,0v3a1,1,0,0,1-2,0Z" style="fill:#fff"/><path d="M86.64,127.28V107.35a1,1,0,0,1,2,0v19.93a1,1,0,0,1-2,0Z" style="fill:#fff"/><path d="M86.64,106.35v-2a1,1,0,0,1,2,0v2a1,1,0,0,1-2,0Z" style="fill:#fff"/><path d="M86.64,101.35v-3a1,1,0,0,1,2,0v3a1,1,0,0,1-2,0Z" style="fill:#fff"/><path d="M86.64,95.35V75.43a1,1,0,0,1,2,0V95.35a1,1,0,0,1-2,0Z" style="fill:#fff"/><path d="M86.64,74.43v-2a1,1,0,0,1,2,0v2a1,1,0,0,1-2,0Z" style="fill:#fff"/><path d="M86.64,69.43v-3a1,1,0,0,1,2,0v3a1,1,0,0,1-2,0Z" style="fill:#fff"/><path d="M86.64,63.43V43.5a1,1,0,1,1,2,0V63.43a1,1,0,0,1-2,0Z" style="fill:#fff"/><path d="M86.64,42.5v-2a1,1,0,1,1,2,0v2a1,1,0,0,1-2,0Z" style="fill:#fff"/><path d="M86.64,37.5v-3a1,1,0,0,1,2,0v3a1,1,0,0,1-2,0Z" style="fill:#fff"/><path d="M86.64,31.5V28.14l1,1H71.08a1,1,0,0,1,0-2H87.64a1,1,0,0,1,1,1V31.5a1,1,0,0,1-2,0Z" style="fill:#fff"/><path d="M70.08,29.14h-2a1,1,0,0,1,0-2h2a1,1,0,0,1,0,2Z" style="fill:#fff"/><path d="M66.13,28.19v3a1,1,0,0,1-2,0v-3a1,1,0,1,1,2,0Z" style="fill:#fff"/><path d="M66.13,34.19V54.11a1,1,0,0,1-2,0V34.19a1,1,0,0,1,2,0Z" style="fill:#fff"/><path d="M66.13,55.11v2a1,1,0,0,1-2,0v-2a1,1,0,0,1,2,0Z" style="fill:#fff"/><path d="M66.13,60.11v3a1,1,0,1,1-2,0v-3a1,1,0,0,1,2,0Z" style="fill:#fff"/><path d="M66.13,66.11V86a1,1,0,1,1-2,0V66.11a1,1,0,0,1,2,0Z" style="fill:#fff"/><path d="M66.13,87v2a1,1,0,1,1-2,0V87a1,1,0,0,1,2,0Z" style="fill:#fff"/><path d="M66.13,92v3a1,1,0,1,1-2,0V92a1,1,0,0,1,2,0Z" style="fill:#fff"/><path d="M66.13,98V118a1,1,0,0,1-2,0V98a1,1,0,0,1,2,0Z" style="fill:#fff"/><path d="M66.13,119v2a1,1,0,0,1-2,0v-2a1,1,0,1,1,2,0Z" style="fill:#fff"/><path d="M66.13,124v3a1,1,0,0,1-2,0v-3a1,1,0,1,1,2,0Z" style="fill:#fff"/><path d="M66.13,130v14.95l-.09,5a.92.92,0,0,1-.94.9.93.93,0,0,1-.91-.9l-.09-5V130a1,1,0,0,1,1-1A1,1,0,0,1,66.13,130Z" style="fill:#fff"/><path d="M66,150.89l0,2a.86.86,0,0,1-1.71,0l0-2a.9.9,0,1,1,1.79,0A0,0,0,0,1,66,150.89Z" style="fill:#fff"/><path d="M65.91,155.89l-.06,3a.73.73,0,0,1-.74.71.73.73,0,0,1-.71-.71l-.06-3a.79.79,0,1,1,1.57,0S65.92,155.88,65.91,155.89Z" style="fill:#fff"/><path d="M65.78,161.89l-.13,6.25-.52-.52,13.67.31a.22.22,0,0,1,.2.21.2.2,0,0,1-.2.2l-13.67.32a.51.51,0,0,1-.52-.5h0v0l-.14-6.25a.66.66,0,0,1,1.31,0Z" style="fill:#fff"/><path d="M79.8,168l2,0a.12.12,0,0,1,.12.13.13.13,0,0,1-.12.13l-2,0a.18.18,0,0,1-.18-.18.17.17,0,0,1,.17-.18Z" style="fill:#fff"/><path d="M84.8,168.09l1.86,0-1.86.05a.05.05,0,0,1,0-.1Z" style="fill:#fff"/><path d="M108.36,167.86c6.65-.18,13.29-.36,19.93-.49a.49.49,0,1,1,0,1h0C121.65,168.22,115,168,108.36,167.86Z" style="fill:#fff"/><path d="M129.3,167.34l2,0a.56.56,0,0,1,0,1.12h0l-2,0a.52.52,0,0,1,0-1Z" style="fill:#fff"/><path d="M130.74,164.92l-.07-3a.7.7,0,0,1,1.39,0v0l-.07,3a.63.63,0,0,1-.64.62A.62.62,0,0,1,130.74,164.92Z" style="fill:#fff"/><path d="M130.6,158.92l-.22-10c-.08-3.32,0-6.64,0-10a1,1,0,0,1,2,0h0c0,3.32.07,6.64,0,10l-.22,10a.76.76,0,0,1-.77.75A.77.77,0,0,1,130.6,158.92Z" style="fill:#fff"/><path d="M130.36,138v-2a1,1,0,0,1,2,0v2a1,1,0,0,1-2,0Z" style="fill:#fff"/><path d="M130.36,133v-3a1,1,0,0,1,2,0v3a1,1,0,0,1-2,0Z" style="fill:#fff"/><path d="M130.36,127V107.07a1,1,0,0,1,2,0V127a1,1,0,0,1-2,0Z" style="fill:#fff"/><path d="M130.36,106.07v-2a1,1,0,0,1,2,0v2a1,1,0,0,1-2,0Z" style="fill:#fff"/><path d="M130.36,101.07v-3a1,1,0,0,1,2,0v3a1,1,0,0,1-2,0Z" style="fill:#fff"/><path d="M130.36,95.07V75.15a1,1,0,0,1,2,0V95.07a1,1,0,0,1-2,0Z" style="fill:#fff"/><path d="M130.36,74.15v-2a1,1,0,0,1,2,0v2a1,1,0,0,1-2,0Z" style="fill:#fff"/><path d="M130.36,69.15v-3a1,1,0,0,1,2,0v3a1,1,0,0,1-2,0Z" style="fill:#fff"/><path d="M130.36,63.15V43.22a1,1,0,0,1,2,0V63.15a1,1,0,1,1-2,0Z" style="fill:#fff"/><path d="M130.36,42.22v-2a1,1,0,0,1,2,0v2a1,1,0,0,1-2,0Z" style="fill:#fff"/><path d="M130.36,37.22v-3a1,1,0,0,1,2,0v3a1,1,0,0,1-2,0Z" style="fill:#fff"/><path d="M130.36,31.22V27.86l1,1H114.8a1,1,0,0,1,0-2h16.56a1,1,0,0,1,1,1v3.36a1,1,0,0,1-2,0Z" style="fill:#fff"/><path d="M113.8,28.86h-2a1,1,0,0,1,0-2h2a1,1,0,0,1,0,2Z" style="fill:#fff"/><path d="M109.85,27.91v3a1,1,0,0,1-2,0v-3a1,1,0,1,1,2,0Z" style="fill:#fff"/><path d="M109.85,33.91V53.83a1,1,0,1,1-2,0V33.91a1,1,0,0,1,2,0Z" style="fill:#fff"/><path d="M109.85,54.83v2a1,1,0,1,1-2,0v-2a1,1,0,0,1,2,0Z" style="fill:#fff"/><path d="M109.85,59.83v3a1,1,0,1,1-2,0v-3a1,1,0,0,1,2,0Z" style="fill:#fff"/><path d="M109.85,65.83V85.76a1,1,0,1,1-2,0V65.83a1,1,0,0,1,2,0Z" style="fill:#fff"/><path d="M109.85,86.76v2a1,1,0,1,1-2,0v-2a1,1,0,0,1,2,0Z" style="fill:#fff"/><path d="M109.85,91.76v3a1,1,0,1,1-2,0v-3a1,1,0,0,1,2,0Z" style="fill:#fff"/><path d="M109.85,97.76v19.92a1,1,0,0,1-2,0V97.76a1,1,0,0,1,2,0Z" style="fill:#fff"/><path d="M109.85,118.68v2a1,1,0,0,1-2,0v-2a1,1,0,0,1,2,0Z" style="fill:#fff"/><path d="M109.85,123.68v3a1,1,0,0,1-2,0v-3a1,1,0,0,1,2,0Z" style="fill:#fff"/><path d="M109.85,129.68v14.95l-.1,5a.92.92,0,0,1-1.84,0l-.09-5V129.68a1,1,0,0,1,2,0Z" style="fill:#fff"/><path d="M109.75,150.61l0,2a.86.86,0,0,1-1.71,0l0-2a.9.9,0,1,1,1.8,0Z" style="fill:#fff"/><path d="M109.64,155.61l-.06,3a.73.73,0,0,1-1.45,0l-.07-3a.79.79,0,0,1,1.58,0Z" style="fill:#fff"/><path d="M109.51,161.61l-.14,6.25-.52-.52,13.68.31a.22.22,0,0,1,.2.21.2.2,0,0,1-.2.2l-13.68.32a.51.51,0,0,1-.52-.5h0v0l-.13-6.25a.66.66,0,1,1,1.31,0Z" style="fill:#fff"/><path d="M123.53,167.68l2,0a.12.12,0,0,1,.12.13.14.14,0,0,1-.12.13l-2,0a.19.19,0,0,1-.19-.18.19.19,0,0,1,.18-.18Z" style="fill:#fff"/><path d="M128.53,167.81l1.85.05-1.85,0a0,0,0,0,1-.05,0,0,0,0,0,1,0-.05Z" style="fill:#fff"/><circle cx="98" cy="98" r="97" style="fill:none;stroke:#fff;stroke-linecap:round;stroke-miterlimit:10;stroke-width:2px"/></svg>