<svg xmlns="http://www.w3.org/2000/svg" viewBox="0 0 196 196"><path d="M51.57,28.94,49.92,28h0l.4,19.79a.4.4,0,0,1-.39.41.4.4,0,0,1-.41-.39v0L49.92,28h0l1.69.86a.06.06,0,0,1,0,.06s0,0,0,0Z" style="fill:#fff"/><path d="M50.34,48.79l0,2a.46.46,0,0,1-.45.46.44.44,0,0,1-.46-.44v0l0-2a.43.43,0,0,1,.43-.41A.42.42,0,0,1,50.34,48.79Z" style="fill:#fff"/><path d="M50.43,53.76l0,3a.55.55,0,0,1-.55.57.56.56,0,0,1-.57-.55v0l.06-3a.5.5,0,0,1,.51-.5A.51.51,0,0,1,50.43,53.76Z" style="fill:#fff"/><path d="M50.54,59.72l.35,19.8a1,1,0,0,1-1.93,0v0l.35-19.8a.61.61,0,0,1,.62-.6A.63.63,0,0,1,50.54,59.72Z" style="fill:#fff"/><path d="M50.9,80.51l0,2a1,1,0,0,1-1,1,1,1,0,0,1-1-1v0l0-2a1,1,0,0,1,1-1A1,1,0,0,1,50.9,80.51Z" style="fill:#fff"/><path d="M50.94,85.48v3a1,1,0,0,1-2,0v-3a1,1,0,1,1,2,0Z" style="fill:#fff"/><path d="M50.92,91.44v19.8a1,1,0,0,1-2,0V91.44a1,1,0,0,1,2,0Z" style="fill:#fff"/><path d="M50.92,112.23v2a1,1,0,0,1-2,0v-2a1,1,0,0,1,2,0Z" style="fill:#fff"/><path d="M50.92,117.2v3a1,1,0,0,1-2,0v-3a1,1,0,0,1,2,0Z" style="fill:#fff"/><path d="M50.92,123.16V143a1,1,0,0,1-2,0V123.16a1,1,0,0,1,2,0Z" style="fill:#fff"/><path d="M50.92,144v2a1,1,0,0,1-2,0v-2a1,1,0,0,1,2,0Z" style="fill:#fff"/><path d="M50.92,148.91v3a1,1,0,0,1-2,0v-3a1,1,0,0,1,2,0Z" style="fill:#fff"/><path d="M50.92,154.88v12.93l-1.47-.88,6-3.23a1,1,0,1,1,1,1.76l-6.06,3.23-1.47.79v-14.6a1,1,0,0,1,2,0Z" style="fill:#fff"/><path d="M56.38,163.23l1.75-.94a1,1,0,0,1,.95,1.77l-1.76.93a1,1,0,0,1-.94-1.76Z" style="fill:#fff"/><path d="M60.76,160.89l2.63-1.4a1,1,0,1,1,.94,1.76l-2.63,1.4a1,1,0,0,1-.94-1.76Z" style="fill:#fff"/><path d="M66,158.08l17.46-9.32a1,1,0,1,1,1,1.76L67,159.85a1,1,0,0,1-.94-1.77Z" style="fill:#fff"/><path d="M84.36,148.29l1.75-.93a1,1,0,1,1,1,1.76l-1.76.94a1,1,0,0,1-.94-1.77Z" style="fill:#fff"/><path d="M88.74,146l2.63-1.4a1,1,0,1,1,.94,1.76l-2.62,1.41a1,1,0,1,1-1-1.77Z" style="fill:#fff"/><path d="M94,143.15l17.47-9.33a1,1,0,0,1,.94,1.77l-17.47,9.32a1,1,0,1,1-.94-1.76Z" style="fill:#fff"/><path d="M112.34,133.36l1.75-.94a1,1,0,0,1,1.36.41,1,1,0,0,1-.41,1.36l-1.76.93a1,1,0,1,1-.94-1.76Z" style="fill:#fff"/><path d="M116.72,131l2.63-1.41a1,1,0,0,1,1,1.77l-2.63,1.4a1,1,0,1,1-1-1.76Z" style="fill:#fff"/><path d="M122,128.21l17.47-9.32a1,1,0,1,1,.94,1.76L122.92,130a1,1,0,1,1-.94-1.76Z" style="fill:#fff"/><path d="M140.32,118.42l1.76-.94a1,1,0,0,1,.94,1.77l-1.76.93a1,1,0,0,1-.94-1.76Z" style="fill:#fff"/><path d="M144.7,116.08l2.63-1.4a1,1,0,1,1,.95,1.76l-2.63,1.41a1,1,0,0,1-1-1.77Z" style="fill:#fff"/><path d="M150,113.27,167.43,104a1,1,0,0,1,.94,1.77L150.9,115a1,1,0,0,1-.94-1.77Z" style="fill:#fff"/><path d="M168.3,103.48l1.76-.93a1,1,0,1,1,.94,1.76l-1.76.94a1,1,0,0,1-.94-1.77Z" style="fill:#fff"/><path d="M172.68,101.14l2.63-1.4a1,1,0,1,1,.95,1.77l-2.63,1.4a1,1,0,0,1-.95-1.77Z" style="fill:#fff"/><path d="M178,98.34l1.51-.79v1.76l-15.91-8.62a1,1,0,0,1-.41-1.35,1,1,0,0,1,1.36-.41l15.91,8.62,1.65.9-1.66.87-1.51.79a1,1,0,0,1-.93-1.77Z" style="fill:#fff"/><path d="M162.66,90.22l-1.74-1a1,1,0,1,1,1-1.75l1.74.94a1,1,0,1,1-1,1.76Z" style="fill:#fff"/><path d="M158.29,87.85l-2.62-1.42a1,1,0,1,1,1-1.75l2.62,1.42a1,1,0,1,1-1,1.75Z" style="fill:#fff"/><path d="M153.05,85l-17.4-9.43a1,1,0,1,1,.95-1.75L154,83.26a1,1,0,1,1-1,1.75Z" style="fill:#fff"/><path d="M134.77,75.11,133,74.17a1,1,0,0,1-.41-1.36,1,1,0,0,1,1.36-.4l1.75.94a1,1,0,0,1-1,1.76Z" style="fill:#fff"/><path d="M130.41,72.75l-2.62-1.42a1,1,0,0,1-.41-1.36,1,1,0,0,1,1.36-.4L131.36,71a1,1,0,0,1-1,1.76Z" style="fill:#fff"/><path d="M125.17,69.91l-17.41-9.43a1,1,0,0,1,.95-1.76l17.41,9.43a1,1,0,0,1-1,1.76Z" style="fill:#fff"/><path d="M106.89,60l-1.75-.94a1,1,0,0,1,1-1.76l1.75.94a1,1,0,0,1,.4,1.36A1,1,0,0,1,106.89,60Z" style="fill:#fff"/><path d="M102.51,57.65l-2.62-1.42a1,1,0,1,1,1-1.78h0l2.62,1.42a1,1,0,0,1,.4,1.37A1,1,0,0,1,102.51,57.65Z" style="fill:#fff"/><path d="M97.28,54.8,80,45.06a.65.65,0,0,1,.62-1.14L98.23,53a1,1,0,1,1-.92,1.77Z" style="fill:#fff"/><path d="M79.17,44.57l-1.73-1A.6.6,0,0,1,78,42.54l1.77.92a.63.63,0,1,1-.59,1.12Z" style="fill:#fff"/><path d="M74.85,42.13l-2.6-1.46a.5.5,0,0,1,.47-.88l2.65,1.38a.55.55,0,1,1-.51,1Z" style="fill:#fff"/><path d="M69.65,39.2,52.43,29.43a.05.05,0,0,1,0-.08.05.05,0,0,1,.08,0l17.59,9.09a.45.45,0,0,1,.19.6.45.45,0,0,1-.6.19Z" style="fill:#fff"/><circle cx="98" cy="98" r="97" style="fill:none;stroke:#fff;stroke-linecap:round;stroke-miterlimit:10;stroke-width:2px"/></svg>