<svg xmlns="http://www.w3.org/2000/svg" viewBox="0 0 196 196"><path d="M48.12,47.23,34.77,38.91h0q.27,10,.48,19.92a.48.48,0,0,1-.47.5.5.5,0,0,1-.5-.48v0c.13-6.64.31-13.28.49-19.92h0l13.74,7.65a.39.39,0,0,1,.15.53.38.38,0,0,1-.52.15Z" style="fill:#fff"/><circle cx="34.77" cy="60.83" r="0.53" style="fill:#fff"/><circle cx="34.77" cy="62.83" r="0.57" style="fill:#fff"/><path d="M35.38,64.83l.22,10c.06,3.32.19,6.64.18,10a1,1,0,0,1-2,0c0-3.32.13-6.64.18-10l.22-10a.61.61,0,0,1,.63-.6A.61.61,0,0,1,35.38,64.83Z" style="fill:#fff"/><circle cx="34.77" cy="86.76" r="1.02" style="fill:#fff"/><circle cx="34.77" cy="88.76" r="1.01" style="fill:#fff"/><path d="M35.77,90.76v19.92a1,1,0,0,1-2,0V90.76a1,1,0,0,1,2,0Z" style="fill:#fff"/><circle cx="34.77" cy="112.68" r="1" style="fill:#fff"/><circle cx="34.77" cy="114.68" r="1" style="fill:#fff"/><path d="M35.77,116.68v19.93a1,1,0,0,1-2,0V116.68a1,1,0,0,1,2,0Z" style="fill:#fff"/><circle cx="34.77" cy="138.61" r="1" style="fill:#fff"/><circle cx="34.77" cy="140.61" r="1" style="fill:#fff"/><path d="M35.77,142.61V157.3l-1.5-.87,4.52-2.63a1,1,0,0,1,1,1.73l-4.53,2.63-1.5.87V142.61a1,1,0,0,1,2,0Z" style="fill:#fff"/><circle cx="41.02" cy="153.66" r="1" style="fill:#fff"/><circle cx="42.75" cy="152.65" r="1" style="fill:#fff"/><path d="M44,150.79l17.23-10a1,1,0,0,1,1.37.37,1,1,0,0,1-.37,1.36L45,152.51a1,1,0,0,1-1.37-.36A1,1,0,0,1,44,150.79Z" style="fill:#fff"/><circle cx="63.44" cy="140.63" r="1" style="fill:#fff"/><circle cx="65.17" cy="139.63" r="1" style="fill:#fff"/><path d="M66.4,137.76l17.22-10a1,1,0,1,1,1,1.73l-17.23,10a1,1,0,1,1-1-1.73Z" style="fill:#fff"/><circle cx="85.86" cy="127.61" r="1" style="fill:#fff"/><circle cx="87.59" cy="126.6" r="1" style="fill:#fff"/><path d="M88.81,124.74l17.23-10a1,1,0,0,1,1.37.37,1,1,0,0,1-.37,1.36l-17.22,10a1,1,0,0,1-1.37-.36A1,1,0,0,1,88.81,124.74Z" style="fill:#fff"/><circle cx="108.27" cy="114.58" r="1" style="fill:#fff"/><circle cx="110" cy="113.58" r="1" style="fill:#fff"/><path d="M111.23,111.71l17.23-10a1,1,0,0,1,1,1.73l-17.23,10a1,1,0,0,1-1-1.73Z" style="fill:#fff"/><circle cx="130.69" cy="101.56" r="1" style="fill:#fff"/><circle cx="132.42" cy="100.55" r="1" style="fill:#fff"/><path d="M133.64,98.69l1.76-1v1.73L120,90.31a1,1,0,0,1,1-1.72l15.43,9.1,1.48.87-1.49.86-1.75,1h0a1,1,0,1,1-1-1.73Z" style="fill:#fff"/><circle cx="118.75" cy="88.44" r="1" style="fill:#fff"/><circle cx="117.03" cy="87.42" r="1" style="fill:#fff"/><path d="M114.8,87.27,97.64,77.14a1,1,0,1,1,1-1.72l17.17,10.12a1,1,0,0,1-1,1.73Z" style="fill:#fff"/><circle cx="96.42" cy="75.27" r="1" style="fill:#fff"/><circle cx="94.7" cy="74.25" r="1" style="fill:#fff"/><path d="M92.47,74.1,75.3,64a1,1,0,0,1-.37-1.39,1,1,0,0,1,1.4-.37h0L93.49,72.37a1,1,0,0,1-1,1.73Z" style="fill:#fff"/><circle cx="74.09" cy="62.1" r="1.01" style="fill:#fff"/><circle cx="72.37" cy="61.08" r="0.99" style="fill:#fff"/><path d="M70.17,60.88l-17-10.49a.52.52,0,0,1-.17-.71.53.53,0,0,1,.7-.18l17.38,9.75a.95.95,0,1,1-.93,1.65Z" style="fill:#fff"/><circle cx="51.76" cy="48.93" r="0.47" style="fill:#fff"/><path d="M50,48.34a.43.43,0,0,1-.43-.43.43.43,0,0,1,.43-.43.44.44,0,0,1,.43.43A.43.43,0,0,1,50,48.34Z" style="fill:#fff"/><path d="M141.78,157.09c3.33-.1,6.57-.22,9.74-.21,1.59,0,3.18,0,4.78.08l2.41.07,1.21,0,.61,0s.11,0,.14,0v-.46a.57.57,0,0,1,.56-.59.58.58,0,0,1,.59.56v.49s-.1,0-.15,0H161l-1.28,0-2.57.07c-1.72,0-3.45.08-5.18.09C148.5,157.32,145.1,157.19,141.78,157.09Z" style="fill:#fff"/><path d="M161.23,155.24a.63.63,0,1,1,.63-.62A.62.62,0,0,1,161.23,155.24Z" style="fill:#fff"/><circle cx="161.23" cy="152.62" r="0.68" style="fill:#fff"/><path d="M160.5,150.62l-.26-10c0-1.66,0-3.32,0-5v-5a1,1,0,1,1,2,0l0,5c0,1.66,0,3.32,0,5l-.27,10a.73.73,0,0,1-1.46,0Z" style="fill:#fff"/><circle cx="161.23" cy="128.69" r="1" style="fill:#fff"/><circle cx="161.23" cy="126.69" r="1" style="fill:#fff"/><path d="M160.23,124.69V104.77a1,1,0,0,1,2,0v19.92a1,1,0,0,1-2,0Z" style="fill:#fff"/><circle cx="161.23" cy="102.77" r="1" style="fill:#fff"/><circle cx="161.23" cy="100.77" r="1" style="fill:#fff"/><path d="M160.23,98.77V78.84a1,1,0,0,1,2,0V98.77a1,1,0,1,1-2,0Z" style="fill:#fff"/><circle cx="161.23" cy="76.84" r="1" style="fill:#fff"/><circle cx="161.23" cy="74.84" r="1" style="fill:#fff"/><path d="M160.23,72.84V52.92a1,1,0,1,1,2,0V72.84a1,1,0,0,1-2,0Z" style="fill:#fff"/><circle cx="161.23" cy="50.92" r="1" style="fill:#fff"/><circle cx="161.23" cy="48.92" r="1" style="fill:#fff"/><path d="M160.23,46.92V38.7l1,1H149.52a1,1,0,0,1,0-2h11.71a1,1,0,0,1,1,1v8.22a1,1,0,0,1-2,0Z" style="fill:#fff"/><circle cx="147.52" cy="38.7" r="1" style="fill:#fff"/><circle cx="145.52" cy="38.7" r="1" style="fill:#fff"/><path d="M143.52,39.7H142.2l1-1V57.31a1,1,0,0,1-2,0V38.7a1,1,0,0,1,1-1h1.32a1,1,0,0,1,0,2Z" style="fill:#fff"/><circle cx="142.2" cy="59.31" r="1" style="fill:#fff"/><circle cx="142.2" cy="61.31" r="1" style="fill:#fff"/><path d="M143.2,63.31V83.23a1,1,0,1,1-2,0V63.31a1,1,0,0,1,2,0Z" style="fill:#fff"/><circle cx="142.2" cy="85.23" r="1" style="fill:#fff"/><circle cx="142.2" cy="87.23" r="1" style="fill:#fff"/><path d="M143.2,89.23v19.93a1,1,0,0,1-2,0V89.23a1,1,0,0,1,2,0Z" style="fill:#fff"/><circle cx="142.2" cy="111.16" r="1" style="fill:#fff"/><circle cx="142.2" cy="113.16" r="1" style="fill:#fff"/><path d="M143.2,115.16v19.92a1,1,0,1,1-2,0h0l0-19.92a1,1,0,0,1,2,0Z" style="fill:#fff"/><path d="M142.2,138.1a1,1,0,1,1,1-1A1,1,0,0,1,142.2,138.1Z" style="fill:#fff"/><circle cx="142.2" cy="139.08" r="0.99" style="fill:#fff"/><path d="M143.13,141.08l-.41,16-.52-.52,3.91.11a.41.41,0,0,1,.41.42.43.43,0,0,1-.41.41l-3.91.1a.5.5,0,0,1-.52-.49v0l-.42-16a.94.94,0,0,1,1.87-.05Z" style="fill:#fff"/><circle cx="148.11" cy="157.09" r="0.36" style="fill:#fff"/><circle cx="150.11" cy="157.09" r="0.31" style="fill:#fff"/><path d="M152.11,156.84l8.29.25-8.29.26a.26.26,0,0,1-.26-.25.24.24,0,0,1,.25-.26Z" style="fill:#fff"/><circle cx="98" cy="98" r="97" style="fill:none;stroke:#fff;stroke-linecap:round;stroke-miterlimit:10;stroke-width:2px"/></svg>