<svg xmlns="http://www.w3.org/2000/svg" viewBox="0 0 196 196">
	<circle cx="98" cy="98" r="97" style="fill:none;stroke:#fff;stroke-linecap:round;stroke-miterlimit:10;stroke-width:2px" />
	<path d="M136.16,58c3.51,2.9,23.24,19.73,20.74,44.51-2,19.18-16.06,31.67-20.74,35.49" style="fill:none;stroke:#fff;stroke-linecap:round;stroke-linejoin:round;stroke-width:0.692604172272068px;stroke-dasharray:19.11680793762207,1.9188766479492188,0,1.9188766479492188,0,1.9188766479492188" />
	<path d="M144.77,48c4.08,3.62,27,24.67,24.06,55.64-2.25,24-18.62,39.58-24.06,44.36" style="fill:none;stroke:#fff;stroke-linecap:round;stroke-linejoin:round;stroke-width:1.6682280296535434px;stroke-dasharray:23.02267074584961,2.3109331130981445,0,2.3109331130981445,0,2.3109331130981445" />
	<path d="M155.74,43c4.41,4,29.15,27.13,26,61.2-2.43,26.38-20.12,43.55-26,48.8" style="fill:none;stroke:#fff;stroke-linecap:round;stroke-linejoin:round;stroke-width:2.7282978251203516px;stroke-dasharray:25.101564407348633,2.5196051597595215,0,2.5196051597595215,0,2.5196051597595215" />
	<path d="M77.5,66.53l0-1,0,0-25,.54a.56.56,0,0,1,0-1.12h0l25,.54a0,0,0,0,1,0,0h0Z" style="fill:#fff" />
	<path d="M49.85,66.11a.61.61,0,1,1,.61-.61A.62.62,0,0,1,49.85,66.11Z" style="fill:#fff" />
	<path d="M47.23,66.15a.65.65,0,1,1,.66-.65A.65.65,0,0,1,47.23,66.15Z" style="fill:#fff" />
	<path d="M44.62,66.2l-26.06.49a1.19,1.19,0,1,1,0-2.38h0l26.06.49a.69.69,0,0,1,.69.71A.7.7,0,0,1,44.62,66.2Z" style="fill:#fff" />
	<circle cx="18.5" cy="68.06" r="1.24" style="fill:#fff" />
	<circle cx="18.5" cy="70.67" r="1.29" style="fill:#fff" />
	<path d="M19.83,73.29c0,4.08,0,8.16,0,12.24V97.77a1.31,1.31,0,0,1-.7,1.15l-1.28.68,0-2.32.12.06a1.31,1.31,0,0,1-1.19,2.33l-.12-.06a1.3,1.3,0,0,1,0-2.32l1.28-.68-.7,1.16V85.53c0-4.08-.06-8.16,0-12.24a1.33,1.33,0,0,1,2.66,0Z" style="fill:#fff" />
	<circle cx="18.5" cy="100.41" r="1.31" style="fill:#fff" />
	<circle cx="18.5" cy="103.02" r="1.31" style="fill:#fff" />
	<path d="M19.81,105.64V130.5l-1.31-1.31h1.2a1.31,1.31,0,0,1,0,2.62H18.5a1.31,1.31,0,0,1-1.31-1.31V105.64a1.31,1.31,0,0,1,2.62,0Z" style="fill:#fff" />
	<circle cx="22.31" cy="130.5" r="1.31" style="fill:#fff" />
	<circle cx="24.93" cy="130.5" r="1.31" style="fill:#fff" />
	<path d="M27.55,129.19H53.61a1.31,1.31,0,0,1,0,2.62H27.55a1.31,1.31,0,0,1,0-2.62Z" style="fill:#fff" />
	<path d="M56.22,131.81a1.31,1.31,0,1,1,1.31-1.31A1.31,1.31,0,0,1,56.22,131.81Z" style="fill:#fff" />
	<path d="M58.84,131.81a1.31,1.31,0,1,1,1.31-1.31A1.31,1.31,0,0,1,58.84,131.81Z" style="fill:#fff" />
	<path d="M61.45,129.19H74.94a1.31,1.31,0,0,1,0,2.62H62.37a1.31,1.31,0,1,1,0-2.62H74.94v2.62H61.45a1.31,1.31,0,0,1,0-2.62Z" style="fill:#fff" />
	<path d="M59.75,131.81a1.31,1.31,0,1,1,1.31-1.31A1.31,1.31,0,0,1,59.75,131.81Z" style="fill:#fff" />
	<path d="M57.14,131.81a1.31,1.31,0,1,1,1.3-1.31A1.31,1.31,0,0,1,57.14,131.81Z" style="fill:#fff" />
	<path d="M54.52,131.81H28.46a1.31,1.31,0,0,1,0-2.62H54.52a1.31,1.31,0,0,1,0,2.62Z" style="fill:#fff" />
	<circle cx="25.84" cy="130.5" r="1.31" style="fill:#fff" />
	<circle cx="23.23" cy="130.5" r="1.31" style="fill:#fff" />
	<path d="M20.61,131.81H17.35v-2.62H40.17a1.31,1.31,0,0,1,0,2.62H17.35v-2.62h3.26a1.31,1.31,0,1,1,0,2.62Z" style="fill:#fff" />
	<path d="M42.79,131.81a1.31,1.31,0,1,1,1.3-1.31A1.31,1.31,0,0,1,42.79,131.81Z" style="fill:#fff" />
	<path d="M45.4,131.81a1.31,1.31,0,1,1,1.31-1.31A1.31,1.31,0,0,1,45.4,131.81Z" style="fill:#fff" />
	<path d="M48,129.19H74.08a1.31,1.31,0,0,1,0,2.62H48a1.31,1.31,0,0,1,0-2.62Z" style="fill:#fff" />
	<path d="M76.7,131.81A1.31,1.31,0,1,1,78,130.5,1.31,1.31,0,0,1,76.7,131.81Z" style="fill:#fff" />
	<path d="M78.49,131.63a1.31,1.31,0,1,1,1.31-1.31A1.31,1.31,0,0,1,78.49,131.63Z" style="fill:#fff" />
	<path d="M81.41,130.37l23.1,12.07a1.31,1.31,0,0,1,.56,1.76,1.32,1.32,0,0,1-1.77.56L80.2,132.69a1.31,1.31,0,0,1,1.21-2.32Z" style="fill:#fff" />
	<path d="M106.23,146.12a1.31,1.31,0,1,1,1.3-1.31A1.31,1.31,0,0,1,106.23,146.12Z" style="fill:#fff" />
	<path d="M108.55,147.33a1.31,1.31,0,1,1,1.3-1.31A1.31,1.31,0,0,1,108.55,147.33Z" style="fill:#fff" />
	<path d="M111.47,146.07l18.64,9.73L128.19,157v-5a1.31,1.31,0,0,1,2.62,0v5a1.31,1.31,0,0,1-1.31,1.31,1.25,1.25,0,0,1-.61-.15l-18.63-9.73a1.31,1.31,0,1,1,1.21-2.32Z" style="fill:#fff" />
	<circle cx="129.5" cy="149.31" r="1.31" style="fill:#fff" />
	<circle cx="129.5" cy="146.7" r="1.31" style="fill:#fff" />
	<path d="M128.19,144.08V118a1.31,1.31,0,1,1,2.62,0v26.06a1.31,1.31,0,1,1-2.62,0Z" style="fill:#fff" />
	<circle cx="129.5" cy="115.4" r="1.31" style="fill:#fff" />
	<circle cx="129.5" cy="112.79" r="1.31" style="fill:#fff" />
	<path d="M128.19,110.17V84.11a1.31,1.31,0,0,1,2.62,0v26.06a1.31,1.31,0,1,1-2.62,0Z" style="fill:#fff" />
	<circle cx="129.5" cy="81.5" r="1.31" style="fill:#fff" />
	<circle cx="129.5" cy="78.88" r="1.31" style="fill:#fff" />
	<path d="M128.19,76.27l0-26.06a1.34,1.34,0,0,1,2.68,0h0l0,26.06a1.31,1.31,0,0,1-2.62,0Z" style="fill:#fff" />
	<circle cx="129.5" cy="47.59" r="1.31" style="fill:#fff" />
	<circle cx="129.5" cy="44.97" r="1.27" style="fill:#fff" />
	<path d="M128.28,42.36l.07-3.4L130,40,109.82,50.22a.73.73,0,0,1-.69-1.29l19.83-11a1.15,1.15,0,0,1,1.55.45,1.13,1.13,0,0,1,.14.52V39l.07,3.4a1.22,1.22,0,1,1-2.44,0Z" style="fill:#fff" />
	<circle cx="107.16" cy="50.8" r="0.68" style="fill:#fff" />
	<path d="M104.85,52.66a.63.63,0,0,1-.63-.63.64.64,0,0,1,.63-.64.64.64,0,0,1,.64.64A.64.64,0,0,1,104.85,52.66Z" style="fill:#fff" />
	<path d="M102.82,53.77,79.54,65.5a0,0,0,0,1-.07,0,.07.07,0,0,1,0-.07l22.78-12.68a.59.59,0,0,1,.57,1Z" style="fill:#fff" />
	<line x1="78" y1="67" x2="78" y2="130" style="fill:none;stroke:#fff;stroke-linecap:round;stroke-miterlimit:10;stroke-width:2px" />
</svg>
